M48
; DRILL file {KiCad 9.0.6} date 2025-12-19T19:37:21+1100
; FORMAT={-:-/ absolute / metric / decimal}
; #@! TF.CreationDate,2025-12-19T19:37:21+11:00
; #@! TF.GenerationSoftware,Kicad,Pcbnew,9.0.6
; #@! TF.FileFunction,Plated,1,2,PTH
FMAT,2
METRIC
; #@! TA.AperFunction,Plated,PTH,ViaDrill
T1C0.300
; #@! TA.AperFunction,Plated,PTH,ComponentDrill
T2C0.600
; #@! TA.AperFunction,Plated,PTH,ComponentDrill
T3C1.000
%
G90
G05
T1
X152.5Y-122.9
X153.6Y-121.725
X155.054Y-117.25
X155.076Y-115.124
X155.1Y-118.049
X155.687Y-116.759
X156.499Y-113.197
X157.3Y-125.6
X157.998Y-121.999
X158.0Y-110.7
X158.462Y-120.338
X158.9Y-122.001
X160.579Y-111.829
X160.799Y-121.6
X160.8Y-105.3
X160.9Y-109.539
X160.9Y-115.449
X161.376Y-112.126
X161.849Y-121.6
X162.29Y-116.883
X162.919Y-120.962
X163.3Y-127.8
X164.0Y-113.1
X164.15Y-125.15
X164.201Y-105.3
X165.45Y-117.1
X166.3Y-115.3
X166.4Y-117.1
X167.4Y-120.6
X170.2Y-120.9
T3
X151.61Y-91.37
X151.61Y-93.91
X151.61Y-96.45
X151.61Y-98.99
X151.61Y-101.53
X151.61Y-104.07
X151.61Y-106.61
X151.61Y-109.15
X151.61Y-111.69
X151.61Y-114.23
X151.61Y-116.77
X151.61Y-119.31
X151.61Y-121.85
X151.61Y-124.39
X151.61Y-126.93
X151.61Y-129.47
X151.61Y-132.01
X151.61Y-134.55
X151.61Y-137.09
X151.61Y-139.63
X157.96Y-139.39
X160.5Y-139.39
X163.04Y-139.39
X169.39Y-91.37
X169.39Y-93.91
X169.39Y-96.45
X169.39Y-98.99
X169.39Y-101.53
X169.39Y-104.07
X169.39Y-106.61
X169.39Y-109.15
X169.39Y-111.69
X169.39Y-114.23
X169.39Y-116.77
X169.39Y-119.31
X169.39Y-121.85
X169.39Y-124.39
X169.39Y-126.93
X169.39Y-129.47
X169.39Y-132.01
X169.39Y-134.55
X169.39Y-137.09
X169.39Y-139.63
T2
G00X156.18Y-91.75
M15
G01X156.18Y-91.15
M16
G05
G00X156.18Y-96.18
M15
G01X156.18Y-95.08
M16
G05
G00X164.82Y-91.75
M15
G01X164.82Y-91.15
M16
G05
G00X164.82Y-96.18
M15
G01X164.82Y-95.08
M16
G05
M30
