%TF.GenerationSoftware,KiCad,Pcbnew,9.0.6*%
%TF.CreationDate,2025-12-19T19:37:15+11:00*%
%TF.ProjectId,Devboard,44657662-6f61-4726-942e-6b696361645f,rev?*%
%TF.SameCoordinates,Original*%
%TF.FileFunction,Copper,L2,Bot*%
%TF.FilePolarity,Positive*%
%FSLAX46Y46*%
G04 Gerber Fmt 4.6, Leading zero omitted, Abs format (unit mm)*
G04 Created by KiCad (PCBNEW 9.0.6) date 2025-12-19 19:37:15*
%MOMM*%
%LPD*%
G01*
G04 APERTURE LIST*
%TA.AperFunction,HeatsinkPad*%
%ADD10O,1.000000X2.100000*%
%TD*%
%TA.AperFunction,HeatsinkPad*%
%ADD11O,1.000000X1.600000*%
%TD*%
%TA.AperFunction,ComponentPad*%
%ADD12R,1.700000X1.700000*%
%TD*%
%TA.AperFunction,ComponentPad*%
%ADD13C,1.700000*%
%TD*%
%TA.AperFunction,ViaPad*%
%ADD14C,0.600000*%
%TD*%
%TA.AperFunction,Conductor*%
%ADD15C,0.200000*%
%TD*%
G04 APERTURE END LIST*
D10*
%TO.P,J1,S1,SHIELD*%
%TO.N,GND*%
X164820000Y-95630000D03*
D11*
X164820000Y-91450000D03*
D10*
X156180000Y-95630000D03*
D11*
X156180000Y-91450000D03*
%TD*%
D12*
%TO.P,J3,1,Pin_1*%
%TO.N,VBUS*%
X169390000Y-91370000D03*
D13*
%TO.P,J3,2,Pin_2*%
%TO.N,GPIO29_ADC3*%
X169390000Y-93910000D03*
%TO.P,J3,3,Pin_3*%
%TO.N,GND*%
X169390000Y-96450000D03*
%TO.P,J3,4,Pin_4*%
%TO.N,GPIO28_ADC2*%
X169390000Y-98990000D03*
%TO.P,J3,5,Pin_5*%
%TO.N,+3V3*%
X169390000Y-101530000D03*
%TO.P,J3,6,Pin_6*%
%TO.N,GPIO27_ADC1*%
X169390000Y-104070000D03*
%TO.P,J3,7,Pin_7*%
%TO.N,GPIO26_ADC0*%
X169390000Y-106610000D03*
%TO.P,J3,8,Pin_8*%
%TO.N,GND*%
X169390000Y-109150000D03*
%TO.P,J3,9,Pin_9*%
%TO.N,GPIO24*%
X169390000Y-111690000D03*
%TO.P,J3,10,Pin_10*%
%TO.N,GPIO23*%
X169390000Y-114230000D03*
%TO.P,J3,11,Pin_11*%
%TO.N,RUN*%
X169390000Y-116770000D03*
%TO.P,J3,12,Pin_12*%
%TO.N,GPIO22*%
X169390000Y-119310000D03*
%TO.P,J3,13,Pin_13*%
%TO.N,GND*%
X169390000Y-121850000D03*
%TO.P,J3,14,Pin_14*%
%TO.N,GPIO21*%
X169390000Y-124390000D03*
%TO.P,J3,15,Pin_15*%
%TO.N,GPIO20*%
X169390000Y-126930000D03*
%TO.P,J3,16,Pin_16*%
%TO.N,GPIO19*%
X169390000Y-129470000D03*
%TO.P,J3,17,Pin_17*%
%TO.N,GPIO18*%
X169390000Y-132010000D03*
%TO.P,J3,18,Pin_18*%
%TO.N,GND*%
X169390000Y-134550000D03*
%TO.P,J3,19,Pin_19*%
%TO.N,GPIO17*%
X169390000Y-137090000D03*
%TO.P,J3,20,Pin_20*%
%TO.N,GPIO16*%
X169390000Y-139630000D03*
%TD*%
D12*
%TO.P,J4,1,Pin_1*%
%TO.N,SWCLK*%
X157960000Y-139390000D03*
D13*
%TO.P,J4,2,Pin_2*%
%TO.N,GND*%
X160500000Y-139390000D03*
%TO.P,J4,3,Pin_3*%
%TO.N,SWD*%
X163040000Y-139390000D03*
%TD*%
D12*
%TO.P,J2,1,Pin_1*%
%TO.N,GPIO0*%
X151610000Y-91370000D03*
D13*
%TO.P,J2,2,Pin_2*%
%TO.N,GPIO1*%
X151610000Y-93910000D03*
%TO.P,J2,3,Pin_3*%
%TO.N,GND*%
X151610000Y-96450000D03*
%TO.P,J2,4,Pin_4*%
%TO.N,GPIO2*%
X151610000Y-98990000D03*
%TO.P,J2,5,Pin_5*%
%TO.N,GPIO3*%
X151610000Y-101530000D03*
%TO.P,J2,6,Pin_6*%
%TO.N,GPIO4*%
X151610000Y-104070000D03*
%TO.P,J2,7,Pin_7*%
%TO.N,GPIO5*%
X151610000Y-106610000D03*
%TO.P,J2,8,Pin_8*%
%TO.N,GND*%
X151610000Y-109150000D03*
%TO.P,J2,9,Pin_9*%
%TO.N,GPIO6*%
X151610000Y-111690000D03*
%TO.P,J2,10,Pin_10*%
%TO.N,GPIO7*%
X151610000Y-114230000D03*
%TO.P,J2,11,Pin_11*%
%TO.N,GPIO8*%
X151610000Y-116770000D03*
%TO.P,J2,12,Pin_12*%
%TO.N,GPIO9*%
X151610000Y-119310000D03*
%TO.P,J2,13,Pin_13*%
%TO.N,GND*%
X151610000Y-121850000D03*
%TO.P,J2,14,Pin_14*%
%TO.N,GPIO10*%
X151610000Y-124390000D03*
%TO.P,J2,15,Pin_15*%
%TO.N,GPIO11*%
X151610000Y-126930000D03*
%TO.P,J2,16,Pin_16*%
%TO.N,GPIO12*%
X151610000Y-129470000D03*
%TO.P,J2,17,Pin_17*%
%TO.N,GPIO13*%
X151610000Y-132010000D03*
%TO.P,J2,18,Pin_18*%
%TO.N,GND*%
X151610000Y-134550000D03*
%TO.P,J2,19,Pin_19*%
%TO.N,GPIO14*%
X151610000Y-137090000D03*
%TO.P,J2,20,Pin_20*%
%TO.N,GPIO15*%
X151610000Y-139630000D03*
%TD*%
D14*
%TO.N,+3V3*%
X161375735Y-112125735D03*
X160900000Y-115448527D03*
%TO.N,GND*%
X156499000Y-113197473D03*
X153600000Y-121725000D03*
X155075735Y-115124265D03*
X166300000Y-115300000D03*
X158900000Y-122001000D03*
X163300000Y-127800000D03*
X170200000Y-120900000D03*
X167400000Y-120600000D03*
X158461822Y-120338178D03*
X160900000Y-109539000D03*
X157300000Y-125600000D03*
X152500000Y-122900000D03*
X158000000Y-110700000D03*
X164000000Y-113100000D03*
%TO.N,+1V1*%
X162289806Y-116883203D03*
X164150000Y-125150000D03*
X160579000Y-111829000D03*
%TO.N,GPIO2*%
X155100398Y-118048653D03*
%TO.N,GPIO8*%
X157997838Y-121998625D03*
%TO.N,GPIO1*%
X155054000Y-117250000D03*
%TO.N,GPIO0*%
X155686588Y-116759273D03*
%TO.N,GPIO29_ADC3*%
X165450000Y-117100000D03*
%TO.N,RUN*%
X162918513Y-120962281D03*
%TO.N,GPIO28_ADC2*%
X166400000Y-117100000D03*
%TO.N,SWCLK*%
X160798530Y-121600000D03*
%TO.N,SWD*%
X161848530Y-121600000D03*
%TO.N,QSPI_SS*%
X164201000Y-105300000D03*
X160800000Y-105300000D03*
%TD*%
D15*
%TO.N,+3V3*%
X160900000Y-112601470D02*
X161375735Y-112125735D01*
X160900000Y-115448527D02*
X160900000Y-112601470D01*
%TO.N,GND*%
X158000000Y-111696473D02*
X158000000Y-110700000D01*
X158461822Y-121562822D02*
X158900000Y-122001000D01*
X156499000Y-113197473D02*
X158000000Y-111696473D01*
X158461822Y-120338178D02*
X158461822Y-121562822D01*
X153475000Y-121850000D02*
X151610000Y-121850000D01*
X153600000Y-121725000D02*
X153475000Y-121850000D01*
%TO.N,+1V1*%
X160299000Y-112109000D02*
X160579000Y-111829000D01*
X162501801Y-121395512D02*
X162501801Y-122051801D01*
X162501801Y-122051801D02*
X162800000Y-122350000D01*
X164150000Y-123699943D02*
X164150000Y-125150000D01*
X160299000Y-115697470D02*
X160299000Y-112109000D01*
X162800000Y-122350000D02*
X162800057Y-122350000D01*
X162300000Y-121193711D02*
X162501801Y-121395512D01*
X162273009Y-116900000D02*
X161501530Y-116900000D01*
X161501530Y-116900000D02*
X160299000Y-115697470D01*
X162800057Y-122350000D02*
X164150000Y-123699943D01*
X162289806Y-116883203D02*
X162273009Y-116900000D01*
X162289806Y-116883203D02*
X162300000Y-116893397D01*
X162300000Y-116893397D02*
X162300000Y-121193711D01*
%TO.N,GPIO2*%
X153600000Y-116645943D02*
X153600000Y-115767100D01*
X155002710Y-118048653D02*
X153600000Y-116645943D01*
X153598000Y-100978000D02*
X151610000Y-98990000D01*
X153598000Y-115765100D02*
X153598000Y-100978000D01*
X155100398Y-118048653D02*
X155002710Y-118048653D01*
X153600000Y-115767100D02*
X153598000Y-115765100D01*
%TO.N,GPIO8*%
X155740000Y-120900000D02*
X151610000Y-116770000D01*
X157997838Y-121998625D02*
X157997838Y-121289824D01*
X157608014Y-120900000D02*
X155740000Y-120900000D01*
X157997838Y-121289824D02*
X157608014Y-120900000D01*
%TO.N,GPIO1*%
X155050000Y-117250000D02*
X154001000Y-116201000D01*
X154001000Y-116201000D02*
X154001000Y-115601000D01*
X153999000Y-115599000D02*
X153999000Y-96299000D01*
X154001000Y-115601000D02*
X153999000Y-115599000D01*
X155054000Y-117250000D02*
X155050000Y-117250000D01*
X153999000Y-96299000D02*
X151610000Y-93910000D01*
%TO.N,GPIO0*%
X155459273Y-116759273D02*
X154402000Y-115702000D01*
X155686588Y-116759273D02*
X155459273Y-116759273D01*
X154400000Y-115432900D02*
X154400000Y-94160000D01*
X154402000Y-115702000D02*
X154402000Y-115434900D01*
X154400000Y-94160000D02*
X151610000Y-91370000D01*
X154402000Y-115434900D02*
X154400000Y-115432900D01*
%TO.N,GPIO29_ADC3*%
X167000000Y-115550000D02*
X167000000Y-96300000D01*
X167000000Y-96300000D02*
X169390000Y-93910000D01*
X165450000Y-117100000D02*
X167000000Y-115550000D01*
%TO.N,RUN*%
X168239000Y-117921000D02*
X169390000Y-116770000D01*
X162918513Y-120962281D02*
X162918513Y-121574513D01*
X162918513Y-121574513D02*
X163022000Y-121678000D01*
X168239000Y-121439000D02*
X168239000Y-117921000D01*
X163022000Y-121678000D02*
X168000000Y-121678000D01*
X168000000Y-121678000D02*
X168239000Y-121439000D01*
%TO.N,GPIO28_ADC2*%
X166400000Y-117100000D02*
X167400000Y-116100000D01*
X167400000Y-116100000D02*
X167400000Y-100980000D01*
X167400000Y-100980000D02*
X169390000Y-98990000D01*
%TO.N,SWCLK*%
X157960000Y-125040000D02*
X157960000Y-139390000D01*
X160798530Y-121600000D02*
X160798530Y-122201470D01*
X160798530Y-122201470D02*
X157960000Y-125040000D01*
%TO.N,SWD*%
X161848530Y-121600000D02*
X162100801Y-121852271D01*
X162100801Y-121852271D02*
X162100801Y-138450801D01*
X162100801Y-138450801D02*
X163040000Y-139390000D01*
%TO.N,QSPI_SS*%
X160800000Y-105300000D02*
X164201000Y-105300000D01*
%TD*%
%TA.AperFunction,Conductor*%
%TO.N,GND*%
G36*
X155524805Y-90519407D02*
G01*
X155560769Y-90568907D01*
X155560769Y-90630093D01*
X155548929Y-90654502D01*
X155471052Y-90771050D01*
X155471048Y-90771059D01*
X155410742Y-90916650D01*
X155380000Y-91071204D01*
X155380000Y-91199999D01*
X155380001Y-91200000D01*
X155880000Y-91200000D01*
X155880000Y-91700000D01*
X155380001Y-91700000D01*
X155380000Y-91700001D01*
X155380000Y-91828795D01*
X155410742Y-91983349D01*
X155471048Y-92128940D01*
X155471052Y-92128949D01*
X155558599Y-92259969D01*
X155558602Y-92259973D01*
X155670026Y-92371397D01*
X155670030Y-92371400D01*
X155801058Y-92458951D01*
X155929999Y-92512360D01*
X155930000Y-92512359D01*
X155930000Y-91916988D01*
X155939940Y-91934205D01*
X155995795Y-91990060D01*
X156064204Y-92029556D01*
X156140504Y-92050000D01*
X156219496Y-92050000D01*
X156295796Y-92029556D01*
X156364205Y-91990060D01*
X156420060Y-91934205D01*
X156430000Y-91916988D01*
X156430000Y-92512360D01*
X156558941Y-92458951D01*
X156689969Y-92371400D01*
X156689973Y-92371397D01*
X156801397Y-92259973D01*
X156801400Y-92259969D01*
X156888947Y-92128949D01*
X156888951Y-92128940D01*
X156949257Y-91983349D01*
X156979999Y-91828795D01*
X156980000Y-91828792D01*
X156980000Y-91700001D01*
X156979999Y-91700000D01*
X156480000Y-91700000D01*
X156480000Y-91200000D01*
X156979999Y-91200000D01*
X156980000Y-91199999D01*
X156980000Y-91071207D01*
X156979999Y-91071204D01*
X156949257Y-90916650D01*
X156888951Y-90771059D01*
X156888947Y-90771050D01*
X156811071Y-90654502D01*
X156794462Y-90595614D01*
X156815639Y-90538210D01*
X156866513Y-90504217D01*
X156893386Y-90500500D01*
X164106614Y-90500500D01*
X164164805Y-90519407D01*
X164200769Y-90568907D01*
X164200769Y-90630093D01*
X164188929Y-90654502D01*
X164111052Y-90771050D01*
X164111048Y-90771059D01*
X164050742Y-90916650D01*
X164020000Y-91071204D01*
X164020000Y-91199999D01*
X164020001Y-91200000D01*
X164520000Y-91200000D01*
X164520000Y-91700000D01*
X164020001Y-91700000D01*
X164020000Y-91700001D01*
X164020000Y-91828795D01*
X164050742Y-91983349D01*
X164111048Y-92128940D01*
X164111052Y-92128949D01*
X164198599Y-92259969D01*
X164198602Y-92259973D01*
X164310026Y-92371397D01*
X164310030Y-92371400D01*
X164441058Y-92458951D01*
X164569999Y-92512360D01*
X164570000Y-92512359D01*
X164570000Y-91916988D01*
X164579940Y-91934205D01*
X164635795Y-91990060D01*
X164704204Y-92029556D01*
X164780504Y-92050000D01*
X164859496Y-92050000D01*
X164935796Y-92029556D01*
X165004205Y-91990060D01*
X165060060Y-91934205D01*
X165070000Y-91916988D01*
X165070000Y-92512360D01*
X165198941Y-92458951D01*
X165329969Y-92371400D01*
X165329973Y-92371397D01*
X165441397Y-92259973D01*
X165441400Y-92259969D01*
X165528947Y-92128949D01*
X165528951Y-92128940D01*
X165589257Y-91983349D01*
X165619999Y-91828795D01*
X165620000Y-91828792D01*
X165620000Y-91700001D01*
X165619999Y-91700000D01*
X165120000Y-91700000D01*
X165120000Y-91200000D01*
X165619999Y-91200000D01*
X165620000Y-91199999D01*
X165620000Y-91071207D01*
X165619999Y-91071204D01*
X165589257Y-90916650D01*
X165528951Y-90771059D01*
X165528947Y-90771050D01*
X165451071Y-90654502D01*
X165434462Y-90595614D01*
X165455639Y-90538210D01*
X165506513Y-90504217D01*
X165533386Y-90500500D01*
X168240500Y-90500500D01*
X168298691Y-90519407D01*
X168334655Y-90568907D01*
X168339500Y-90599500D01*
X168339500Y-92239746D01*
X168339501Y-92239758D01*
X168351132Y-92298227D01*
X168351133Y-92298231D01*
X168395448Y-92364552D01*
X168461769Y-92408867D01*
X168506231Y-92417711D01*
X168520241Y-92420498D01*
X168520246Y-92420498D01*
X168520252Y-92420500D01*
X168520253Y-92420500D01*
X170259747Y-92420500D01*
X170259748Y-92420500D01*
X170318231Y-92408867D01*
X170345499Y-92390646D01*
X170404385Y-92374038D01*
X170461789Y-92395215D01*
X170495783Y-92446088D01*
X170499500Y-92472962D01*
X170499500Y-93353274D01*
X170480593Y-93411465D01*
X170431093Y-93447429D01*
X170369907Y-93447429D01*
X170320407Y-93411465D01*
X170318184Y-93408275D01*
X170205979Y-93240348D01*
X170205977Y-93240345D01*
X170059655Y-93094023D01*
X169887598Y-92979059D01*
X169887599Y-92979059D01*
X169887597Y-92979058D01*
X169696418Y-92899869D01*
X169493467Y-92859500D01*
X169493465Y-92859500D01*
X169286535Y-92859500D01*
X169286532Y-92859500D01*
X169083581Y-92899869D01*
X168892402Y-92979058D01*
X168720348Y-93094020D01*
X168574020Y-93240348D01*
X168459058Y-93412402D01*
X168379869Y-93603581D01*
X168339500Y-93806532D01*
X168339500Y-94013467D01*
X168379869Y-94216418D01*
X168436196Y-94352402D01*
X168440997Y-94413399D01*
X168414736Y-94460292D01*
X166815489Y-96059540D01*
X166815488Y-96059539D01*
X166759539Y-96115489D01*
X166719980Y-96184007D01*
X166719978Y-96184011D01*
X166699500Y-96260435D01*
X166699500Y-115384520D01*
X166680593Y-115442711D01*
X166670504Y-115454524D01*
X165554524Y-116570504D01*
X165500007Y-116598281D01*
X165484520Y-116599500D01*
X165384108Y-116599500D01*
X165306200Y-116620375D01*
X165256809Y-116633609D01*
X165142690Y-116699496D01*
X165049496Y-116792690D01*
X164983609Y-116906809D01*
X164964539Y-116977978D01*
X164949500Y-117034108D01*
X164949500Y-117165892D01*
X164967064Y-117231442D01*
X164983609Y-117293190D01*
X165049496Y-117407309D01*
X165049498Y-117407311D01*
X165049500Y-117407314D01*
X165142686Y-117500500D01*
X165142688Y-117500501D01*
X165142690Y-117500503D01*
X165256810Y-117566390D01*
X165256808Y-117566390D01*
X165256812Y-117566391D01*
X165256814Y-117566392D01*
X165384108Y-117600500D01*
X165384110Y-117600500D01*
X165515890Y-117600500D01*
X165515892Y-117600500D01*
X165643186Y-117566392D01*
X165643188Y-117566390D01*
X165643190Y-117566390D01*
X165757309Y-117500503D01*
X165757309Y-117500502D01*
X165757314Y-117500500D01*
X165850500Y-117407314D01*
X165850501Y-117407311D01*
X165854996Y-117402817D01*
X165909513Y-117375040D01*
X165969945Y-117384611D01*
X165995004Y-117402817D01*
X165999498Y-117407311D01*
X165999500Y-117407314D01*
X166092686Y-117500500D01*
X166092688Y-117500501D01*
X166092690Y-117500503D01*
X166206810Y-117566390D01*
X166206808Y-117566390D01*
X166206812Y-117566391D01*
X166206814Y-117566392D01*
X166334108Y-117600500D01*
X166334110Y-117600500D01*
X166465890Y-117600500D01*
X166465892Y-117600500D01*
X166593186Y-117566392D01*
X166593188Y-117566390D01*
X166593190Y-117566390D01*
X166707309Y-117500503D01*
X166707309Y-117500502D01*
X166707314Y-117500500D01*
X166800500Y-117407314D01*
X166813608Y-117384611D01*
X166866390Y-117293190D01*
X166866390Y-117293188D01*
X166866392Y-117293186D01*
X166900500Y-117165892D01*
X166900500Y-117065478D01*
X166919407Y-117007287D01*
X166929496Y-116995474D01*
X167258438Y-116666532D01*
X167640460Y-116284511D01*
X167647992Y-116271465D01*
X167680020Y-116215992D01*
X167680020Y-116215990D01*
X167680022Y-116215988D01*
X167700500Y-116139562D01*
X167700500Y-116060438D01*
X167700500Y-101145478D01*
X167719407Y-101087287D01*
X167729490Y-101075480D01*
X168839708Y-99965261D01*
X168894223Y-99937486D01*
X168947595Y-99943802D01*
X169083580Y-100000130D01*
X169286535Y-100040500D01*
X169286536Y-100040500D01*
X169493464Y-100040500D01*
X169493465Y-100040500D01*
X169696420Y-100000130D01*
X169887598Y-99920941D01*
X170059655Y-99805977D01*
X170205977Y-99659655D01*
X170318184Y-99491723D01*
X170366234Y-99453844D01*
X170427372Y-99451442D01*
X170478246Y-99485434D01*
X170499424Y-99542838D01*
X170499500Y-99546725D01*
X170499500Y-100973274D01*
X170480593Y-101031465D01*
X170431093Y-101067429D01*
X170369907Y-101067429D01*
X170320407Y-101031465D01*
X170318184Y-101028275D01*
X170205979Y-100860348D01*
X170205977Y-100860345D01*
X170059655Y-100714023D01*
X170059651Y-100714020D01*
X169887597Y-100599058D01*
X169696418Y-100519869D01*
X169493467Y-100479500D01*
X169493465Y-100479500D01*
X169286535Y-100479500D01*
X169286532Y-100479500D01*
X169083581Y-100519869D01*
X168892402Y-100599058D01*
X168720348Y-100714020D01*
X168574020Y-100860348D01*
X168459058Y-101032402D01*
X168379869Y-101223581D01*
X168339500Y-101426532D01*
X168339500Y-101633467D01*
X168379869Y-101836418D01*
X168459058Y-102027597D01*
X168459059Y-102027598D01*
X168574023Y-102199655D01*
X168720345Y-102345977D01*
X168892402Y-102460941D01*
X169083580Y-102540130D01*
X169286535Y-102580500D01*
X169286536Y-102580500D01*
X169493464Y-102580500D01*
X169493465Y-102580500D01*
X169696420Y-102540130D01*
X169887598Y-102460941D01*
X170059655Y-102345977D01*
X170205977Y-102199655D01*
X170318184Y-102031723D01*
X170366234Y-101993844D01*
X170427372Y-101991442D01*
X170478246Y-102025434D01*
X170499424Y-102082838D01*
X170499500Y-102086725D01*
X170499500Y-103513274D01*
X170480593Y-103571465D01*
X170431093Y-103607429D01*
X170369907Y-103607429D01*
X170320407Y-103571465D01*
X170318184Y-103568275D01*
X170205979Y-103400348D01*
X170205977Y-103400345D01*
X170059655Y-103254023D01*
X169887598Y-103139059D01*
X169887599Y-103139059D01*
X169887597Y-103139058D01*
X169696418Y-103059869D01*
X169493467Y-103019500D01*
X169493465Y-103019500D01*
X169286535Y-103019500D01*
X169286532Y-103019500D01*
X169083581Y-103059869D01*
X168892402Y-103139058D01*
X168720348Y-103254020D01*
X168574020Y-103400348D01*
X168459058Y-103572402D01*
X168379869Y-103763581D01*
X168339500Y-103966532D01*
X168339500Y-104173467D01*
X168379869Y-104376418D01*
X168459058Y-104567597D01*
X168459059Y-104567598D01*
X168574023Y-104739655D01*
X168720345Y-104885977D01*
X168892402Y-105000941D01*
X169083580Y-105080130D01*
X169286535Y-105120500D01*
X169286536Y-105120500D01*
X169493464Y-105120500D01*
X169493465Y-105120500D01*
X169696420Y-105080130D01*
X169887598Y-105000941D01*
X170059655Y-104885977D01*
X170205977Y-104739655D01*
X170318184Y-104571723D01*
X170366234Y-104533844D01*
X170427372Y-104531442D01*
X170478246Y-104565434D01*
X170499424Y-104622838D01*
X170499500Y-104626725D01*
X170499500Y-106053274D01*
X170480593Y-106111465D01*
X170431093Y-106147429D01*
X170369907Y-106147429D01*
X170320407Y-106111465D01*
X170318184Y-106108275D01*
X170205979Y-105940348D01*
X170205977Y-105940345D01*
X170059655Y-105794023D01*
X170018299Y-105766390D01*
X169887597Y-105679058D01*
X169696418Y-105599869D01*
X169493467Y-105559500D01*
X169493465Y-105559500D01*
X169286535Y-105559500D01*
X169286532Y-105559500D01*
X169083581Y-105599869D01*
X168892402Y-105679058D01*
X168720348Y-105794020D01*
X168574020Y-105940348D01*
X168459058Y-106112402D01*
X168379869Y-106303581D01*
X168339500Y-106506532D01*
X168339500Y-106713467D01*
X168379869Y-106916418D01*
X168459058Y-107107597D01*
X168459059Y-107107598D01*
X168574023Y-107279655D01*
X168720345Y-107425977D01*
X168892402Y-107540941D01*
X169083580Y-107620130D01*
X169286535Y-107660500D01*
X169286536Y-107660500D01*
X169493464Y-107660500D01*
X169493465Y-107660500D01*
X169696420Y-107620130D01*
X169887598Y-107540941D01*
X170059655Y-107425977D01*
X170205977Y-107279655D01*
X170318184Y-107111723D01*
X170366234Y-107073844D01*
X170427372Y-107071442D01*
X170478246Y-107105434D01*
X170499424Y-107162838D01*
X170499500Y-107166725D01*
X170499500Y-108435183D01*
X170480593Y-108493374D01*
X170431093Y-108529338D01*
X170392732Y-108533878D01*
X170362087Y-108531466D01*
X169872962Y-109020591D01*
X169855925Y-108957007D01*
X169790099Y-108842993D01*
X169697007Y-108749901D01*
X169582993Y-108684075D01*
X169519406Y-108667036D01*
X170008532Y-108177911D01*
X169992730Y-108166432D01*
X169831440Y-108084250D01*
X169659289Y-108028316D01*
X169480510Y-108000000D01*
X169299490Y-108000000D01*
X169120710Y-108028316D01*
X168948559Y-108084250D01*
X168787264Y-108166434D01*
X168771466Y-108177911D01*
X169260592Y-108667037D01*
X169197007Y-108684075D01*
X169082993Y-108749901D01*
X168989901Y-108842993D01*
X168924075Y-108957007D01*
X168907037Y-109020592D01*
X168417911Y-108531466D01*
X168406434Y-108547264D01*
X168324250Y-108708559D01*
X168268316Y-108880710D01*
X168240000Y-109059489D01*
X168240000Y-109240510D01*
X168268316Y-109419289D01*
X168324250Y-109591440D01*
X168406432Y-109752730D01*
X168417911Y-109768531D01*
X168907036Y-109279406D01*
X168924075Y-109342993D01*
X168989901Y-109457007D01*
X169082993Y-109550099D01*
X169197007Y-109615925D01*
X169260591Y-109632962D01*
X168771466Y-110122087D01*
X168787266Y-110133566D01*
X168948559Y-110215749D01*
X169120710Y-110271683D01*
X169299490Y-110300000D01*
X169480510Y-110300000D01*
X169659289Y-110271683D01*
X169831440Y-110215749D01*
X169992730Y-110133568D01*
X169992735Y-110133564D01*
X170008532Y-110122087D01*
X170008532Y-110122086D01*
X169519408Y-109632962D01*
X169582993Y-109615925D01*
X169697007Y-109550099D01*
X169790099Y-109457007D01*
X169855925Y-109342993D01*
X169872962Y-109279408D01*
X170362086Y-109768532D01*
X170392732Y-109766121D01*
X170452227Y-109780404D01*
X170491964Y-109826930D01*
X170499500Y-109864816D01*
X170499500Y-111133274D01*
X170480593Y-111191465D01*
X170431093Y-111227429D01*
X170369907Y-111227429D01*
X170320407Y-111191465D01*
X170318184Y-111188275D01*
X170205979Y-111020348D01*
X170205977Y-111020345D01*
X170059655Y-110874023D01*
X169887598Y-110759059D01*
X169887599Y-110759059D01*
X169887597Y-110759058D01*
X169696418Y-110679869D01*
X169493467Y-110639500D01*
X169493465Y-110639500D01*
X169286535Y-110639500D01*
X169286532Y-110639500D01*
X169083581Y-110679869D01*
X168892402Y-110759058D01*
X168720348Y-110874020D01*
X168574020Y-111020348D01*
X168459058Y-111192402D01*
X168379869Y-111383581D01*
X168339500Y-111586532D01*
X168339500Y-111793467D01*
X168379869Y-111996418D01*
X168459058Y-112187597D01*
X168546808Y-112318925D01*
X168574023Y-112359655D01*
X168720345Y-112505977D01*
X168892402Y-112620941D01*
X169083580Y-112700130D01*
X169286535Y-112740500D01*
X169286536Y-112740500D01*
X169493464Y-112740500D01*
X169493465Y-112740500D01*
X169696420Y-112700130D01*
X169887598Y-112620941D01*
X170059655Y-112505977D01*
X170205977Y-112359655D01*
X170318184Y-112191723D01*
X170366234Y-112153844D01*
X170427372Y-112151442D01*
X170478246Y-112185434D01*
X170499424Y-112242838D01*
X170499500Y-112246725D01*
X170499500Y-113673274D01*
X170480593Y-113731465D01*
X170431093Y-113767429D01*
X170369907Y-113767429D01*
X170320407Y-113731465D01*
X170318184Y-113728275D01*
X170205979Y-113560348D01*
X170205977Y-113560345D01*
X170059655Y-113414023D01*
X169887598Y-113299059D01*
X169887599Y-113299059D01*
X169887597Y-113299058D01*
X169696418Y-113219869D01*
X169493467Y-113179500D01*
X169493465Y-113179500D01*
X169286535Y-113179500D01*
X169286532Y-113179500D01*
X169083581Y-113219869D01*
X168892402Y-113299058D01*
X168720348Y-113414020D01*
X168574020Y-113560348D01*
X168459058Y-113732402D01*
X168379869Y-113923581D01*
X168339500Y-114126532D01*
X168339500Y-114333467D01*
X168379869Y-114536418D01*
X168459058Y-114727597D01*
X168459059Y-114727598D01*
X168574023Y-114899655D01*
X168720345Y-115045977D01*
X168892402Y-115160941D01*
X169083580Y-115240130D01*
X169286535Y-115280500D01*
X169286536Y-115280500D01*
X169493464Y-115280500D01*
X169493465Y-115280500D01*
X169696420Y-115240130D01*
X169887598Y-115160941D01*
X170059655Y-115045977D01*
X170205977Y-114899655D01*
X170318184Y-114731723D01*
X170366234Y-114693844D01*
X170427372Y-114691442D01*
X170478246Y-114725434D01*
X170499424Y-114782838D01*
X170499500Y-114786725D01*
X170499500Y-116213274D01*
X170480593Y-116271465D01*
X170431093Y-116307429D01*
X170369907Y-116307429D01*
X170320407Y-116271465D01*
X170318184Y-116268275D01*
X170205979Y-116100348D01*
X170205977Y-116100345D01*
X170059655Y-115954023D01*
X170059651Y-115954020D01*
X169887597Y-115839058D01*
X169696418Y-115759869D01*
X169493467Y-115719500D01*
X169493465Y-115719500D01*
X169286535Y-115719500D01*
X169286532Y-115719500D01*
X169083581Y-115759869D01*
X168892402Y-115839058D01*
X168720348Y-115954020D01*
X168574020Y-116100348D01*
X168459058Y-116272402D01*
X168379869Y-116463581D01*
X168339500Y-116666532D01*
X168339500Y-116873467D01*
X168379869Y-117076418D01*
X168436196Y-117212402D01*
X168440997Y-117273399D01*
X168414736Y-117320291D01*
X168054489Y-117680539D01*
X167998539Y-117736489D01*
X167958980Y-117805007D01*
X167958978Y-117805011D01*
X167938500Y-117881435D01*
X167938500Y-121273521D01*
X167936031Y-121281118D01*
X167937281Y-121289008D01*
X167926756Y-121309663D01*
X167919593Y-121331712D01*
X167909504Y-121343525D01*
X167904525Y-121348504D01*
X167850008Y-121376281D01*
X167834521Y-121377500D01*
X163428187Y-121377500D01*
X163369996Y-121358593D01*
X163334032Y-121309093D01*
X163334032Y-121247907D01*
X163342451Y-121229000D01*
X163384903Y-121155471D01*
X163384903Y-121155469D01*
X163384905Y-121155467D01*
X163419013Y-121028173D01*
X163419013Y-120896389D01*
X163384905Y-120769095D01*
X163384903Y-120769092D01*
X163384903Y-120769090D01*
X163319016Y-120654971D01*
X163319014Y-120654969D01*
X163319013Y-120654967D01*
X163225827Y-120561781D01*
X163225824Y-120561779D01*
X163225822Y-120561777D01*
X163111702Y-120495890D01*
X163111704Y-120495890D01*
X163062312Y-120482656D01*
X162984405Y-120461781D01*
X162852621Y-120461781D01*
X162725327Y-120495889D01*
X162725325Y-120495889D01*
X162725123Y-120495944D01*
X162664021Y-120492741D01*
X162616471Y-120454236D01*
X162600500Y-120400317D01*
X162600500Y-117321330D01*
X162619407Y-117263139D01*
X162629490Y-117251332D01*
X162690306Y-117190517D01*
X162704523Y-117165892D01*
X162756196Y-117076393D01*
X162756196Y-117076391D01*
X162756198Y-117076389D01*
X162790306Y-116949095D01*
X162790306Y-116817311D01*
X162756198Y-116690017D01*
X162756196Y-116690014D01*
X162756196Y-116690012D01*
X162690309Y-116575893D01*
X162690307Y-116575891D01*
X162690306Y-116575889D01*
X162597120Y-116482703D01*
X162597117Y-116482701D01*
X162597115Y-116482699D01*
X162482995Y-116416812D01*
X162482997Y-116416812D01*
X162433605Y-116403578D01*
X162355698Y-116382703D01*
X162223914Y-116382703D01*
X162146006Y-116403578D01*
X162096615Y-116416812D01*
X161982496Y-116482699D01*
X161982495Y-116482700D01*
X161982492Y-116482702D01*
X161982492Y-116482703D01*
X161894689Y-116570505D01*
X161887574Y-116574130D01*
X161882879Y-116580593D01*
X161860830Y-116587756D01*
X161840175Y-116598281D01*
X161824688Y-116599500D01*
X161667009Y-116599500D01*
X161608818Y-116580593D01*
X161597005Y-116570504D01*
X161088200Y-116061699D01*
X161060423Y-116007182D01*
X161069994Y-115946750D01*
X161108702Y-115905960D01*
X161207314Y-115849027D01*
X161300500Y-115755841D01*
X161311358Y-115737034D01*
X161366390Y-115641717D01*
X161366390Y-115641715D01*
X161366392Y-115641713D01*
X161400500Y-115514419D01*
X161400500Y-115382635D01*
X161366392Y-115255341D01*
X161366390Y-115255338D01*
X161366390Y-115255336D01*
X161300503Y-115141217D01*
X161300501Y-115141215D01*
X161300500Y-115141213D01*
X161229494Y-115070207D01*
X161201719Y-115015693D01*
X161200500Y-115000206D01*
X161200500Y-112766947D01*
X161202968Y-112759349D01*
X161201719Y-112751460D01*
X161212243Y-112730804D01*
X161219407Y-112708756D01*
X161229485Y-112696954D01*
X161271210Y-112655229D01*
X161325725Y-112627454D01*
X161341212Y-112626235D01*
X161441625Y-112626235D01*
X161441627Y-112626235D01*
X161568921Y-112592127D01*
X161568923Y-112592125D01*
X161568925Y-112592125D01*
X161683044Y-112526238D01*
X161683044Y-112526237D01*
X161683049Y-112526235D01*
X161776235Y-112433049D01*
X161818609Y-112359655D01*
X161842125Y-112318925D01*
X161842125Y-112318923D01*
X161842127Y-112318921D01*
X161876235Y-112191627D01*
X161876235Y-112059843D01*
X161842127Y-111932549D01*
X161842125Y-111932546D01*
X161842125Y-111932544D01*
X161776238Y-111818425D01*
X161776236Y-111818423D01*
X161776235Y-111818421D01*
X161683049Y-111725235D01*
X161683046Y-111725233D01*
X161683044Y-111725231D01*
X161568924Y-111659344D01*
X161568926Y-111659344D01*
X161519534Y-111646110D01*
X161441627Y-111625235D01*
X161309843Y-111625235D01*
X161182549Y-111659343D01*
X161182548Y-111659343D01*
X161182546Y-111659344D01*
X161182545Y-111659344D01*
X161175600Y-111663354D01*
X161115750Y-111676071D01*
X161059857Y-111651180D01*
X161040370Y-111627114D01*
X160979503Y-111521690D01*
X160979501Y-111521688D01*
X160979500Y-111521686D01*
X160886314Y-111428500D01*
X160886311Y-111428498D01*
X160886309Y-111428496D01*
X160772189Y-111362609D01*
X160772191Y-111362609D01*
X160722799Y-111349375D01*
X160644892Y-111328500D01*
X160513108Y-111328500D01*
X160435200Y-111349375D01*
X160385809Y-111362609D01*
X160271690Y-111428496D01*
X160178496Y-111521690D01*
X160112609Y-111635809D01*
X160078500Y-111763109D01*
X160078500Y-111864870D01*
X160061085Y-111918466D01*
X160061784Y-111918870D01*
X160059887Y-111922155D01*
X160059593Y-111923061D01*
X160058585Y-111924410D01*
X160018980Y-111993007D01*
X160018978Y-111993011D01*
X159998500Y-112069435D01*
X159998500Y-115737034D01*
X160018977Y-115813455D01*
X160018979Y-115813460D01*
X160039513Y-115849026D01*
X160053441Y-115873149D01*
X160058540Y-115881981D01*
X161261070Y-117084511D01*
X161261069Y-117084511D01*
X161317019Y-117140460D01*
X161385537Y-117180019D01*
X161385541Y-117180021D01*
X161461965Y-117200499D01*
X161461967Y-117200500D01*
X161461968Y-117200500D01*
X161541092Y-117200500D01*
X161858281Y-117200500D01*
X161865878Y-117202968D01*
X161873767Y-117201719D01*
X161894420Y-117212242D01*
X161916472Y-117219407D01*
X161928284Y-117229496D01*
X161970503Y-117271714D01*
X161998281Y-117326230D01*
X161999500Y-117341718D01*
X161999500Y-121000500D01*
X161980593Y-121058691D01*
X161931093Y-121094655D01*
X161900500Y-121099500D01*
X161782638Y-121099500D01*
X161704730Y-121120375D01*
X161655339Y-121133609D01*
X161541220Y-121199496D01*
X161448028Y-121292688D01*
X161409266Y-121359826D01*
X161363796Y-121400766D01*
X161302946Y-121407161D01*
X161249958Y-121376568D01*
X161237794Y-121359826D01*
X161199031Y-121292688D01*
X161199030Y-121292686D01*
X161105844Y-121199500D01*
X161105841Y-121199498D01*
X161105839Y-121199496D01*
X160991719Y-121133609D01*
X160991721Y-121133609D01*
X160942329Y-121120375D01*
X160864422Y-121099500D01*
X160732638Y-121099500D01*
X160654730Y-121120375D01*
X160605339Y-121133609D01*
X160491220Y-121199496D01*
X160398026Y-121292690D01*
X160332139Y-121406809D01*
X160313069Y-121477978D01*
X160298030Y-121534108D01*
X160298030Y-121665892D01*
X160304841Y-121691311D01*
X160332139Y-121793190D01*
X160398026Y-121907309D01*
X160398028Y-121907311D01*
X160398030Y-121907314D01*
X160462870Y-121972154D01*
X160490646Y-122026669D01*
X160481075Y-122087101D01*
X160462869Y-122112160D01*
X157775489Y-124799540D01*
X157775488Y-124799539D01*
X157719539Y-124855489D01*
X157679980Y-124924007D01*
X157679978Y-124924011D01*
X157659500Y-125000435D01*
X157659500Y-138240500D01*
X157640593Y-138298691D01*
X157591093Y-138334655D01*
X157560500Y-138339500D01*
X157090252Y-138339500D01*
X157090251Y-138339500D01*
X157090241Y-138339501D01*
X157031772Y-138351132D01*
X157031766Y-138351134D01*
X156965451Y-138395445D01*
X156965445Y-138395451D01*
X156921134Y-138461766D01*
X156921132Y-138461772D01*
X156909501Y-138520241D01*
X156909500Y-138520253D01*
X156909500Y-140259746D01*
X156909501Y-140259758D01*
X156921132Y-140318227D01*
X156921133Y-140318231D01*
X156939353Y-140345499D01*
X156955962Y-140404385D01*
X156934785Y-140461789D01*
X156883912Y-140495783D01*
X156857038Y-140499500D01*
X152465139Y-140499500D01*
X152406948Y-140480593D01*
X152370984Y-140431093D01*
X152370984Y-140369907D01*
X152395133Y-140330498D01*
X152425977Y-140299655D01*
X152540941Y-140127598D01*
X152620130Y-139936420D01*
X152660500Y-139733465D01*
X152660500Y-139526535D01*
X152620130Y-139323580D01*
X152540941Y-139132402D01*
X152425977Y-138960345D01*
X152279655Y-138814023D01*
X152279651Y-138814020D01*
X152107597Y-138699058D01*
X151916418Y-138619869D01*
X151713467Y-138579500D01*
X151713465Y-138579500D01*
X151506535Y-138579500D01*
X151506532Y-138579500D01*
X151303581Y-138619869D01*
X151112402Y-138699058D01*
X150940348Y-138814020D01*
X150794020Y-138960348D01*
X150681816Y-139128275D01*
X150633766Y-139166155D01*
X150572628Y-139168557D01*
X150521754Y-139134564D01*
X150500576Y-139077161D01*
X150500500Y-139073274D01*
X150500500Y-137646725D01*
X150519407Y-137588534D01*
X150568907Y-137552570D01*
X150630093Y-137552570D01*
X150679593Y-137588534D01*
X150681813Y-137591720D01*
X150794023Y-137759655D01*
X150940345Y-137905977D01*
X151112402Y-138020941D01*
X151303580Y-138100130D01*
X151506535Y-138140500D01*
X151506536Y-138140500D01*
X151713464Y-138140500D01*
X151713465Y-138140500D01*
X151916420Y-138100130D01*
X152107598Y-138020941D01*
X152279655Y-137905977D01*
X152425977Y-137759655D01*
X152540941Y-137587598D01*
X152620130Y-137396420D01*
X152660500Y-137193465D01*
X152660500Y-136986535D01*
X152620130Y-136783580D01*
X152540941Y-136592402D01*
X152425977Y-136420345D01*
X152279655Y-136274023D01*
X152107598Y-136159059D01*
X152107599Y-136159059D01*
X152107597Y-136159058D01*
X151916418Y-136079869D01*
X151713467Y-136039500D01*
X151713465Y-136039500D01*
X151506535Y-136039500D01*
X151506532Y-136039500D01*
X151303581Y-136079869D01*
X151112402Y-136159058D01*
X150940348Y-136274020D01*
X150794020Y-136420348D01*
X150681816Y-136588275D01*
X150633766Y-136626155D01*
X150572628Y-136628557D01*
X150521754Y-136594564D01*
X150500576Y-136537161D01*
X150500500Y-136533274D01*
X150500500Y-135264815D01*
X150519407Y-135206624D01*
X150568907Y-135170660D01*
X150607269Y-135166120D01*
X150637911Y-135168532D01*
X151127036Y-134679406D01*
X151144075Y-134742993D01*
X151209901Y-134857007D01*
X151302993Y-134950099D01*
X151417007Y-135015925D01*
X151480591Y-135032962D01*
X150991466Y-135522087D01*
X151007266Y-135533566D01*
X151168559Y-135615749D01*
X151340710Y-135671683D01*
X151519490Y-135700000D01*
X151700510Y-135700000D01*
X151879289Y-135671683D01*
X152051440Y-135615749D01*
X152212730Y-135533568D01*
X152212735Y-135533564D01*
X152228532Y-135522087D01*
X152228532Y-135522086D01*
X151739408Y-135032962D01*
X151802993Y-135015925D01*
X151917007Y-134950099D01*
X152010099Y-134857007D01*
X152075925Y-134742993D01*
X152092962Y-134679408D01*
X152582086Y-135168532D01*
X152582087Y-135168532D01*
X152593564Y-135152735D01*
X152593568Y-135152730D01*
X152675749Y-134991440D01*
X152731683Y-134819289D01*
X152760000Y-134640510D01*
X152760000Y-134459489D01*
X152731683Y-134280710D01*
X152675749Y-134108559D01*
X152593566Y-133947266D01*
X152582087Y-133931466D01*
X152092962Y-134420591D01*
X152075925Y-134357007D01*
X152010099Y-134242993D01*
X151917007Y-134149901D01*
X151802993Y-134084075D01*
X151739406Y-134067036D01*
X152228532Y-133577911D01*
X152212730Y-133566432D01*
X152051440Y-133484250D01*
X151879289Y-133428316D01*
X151700510Y-133400000D01*
X151519490Y-133400000D01*
X151340710Y-133428316D01*
X151168559Y-133484250D01*
X151007264Y-133566434D01*
X150991466Y-133577911D01*
X151480592Y-134067037D01*
X151417007Y-134084075D01*
X151302993Y-134149901D01*
X151209901Y-134242993D01*
X151144075Y-134357007D01*
X151127037Y-134420592D01*
X150637911Y-133931466D01*
X150607271Y-133933879D01*
X150547775Y-133919597D01*
X150508037Y-133873073D01*
X150500500Y-133835184D01*
X150500500Y-132566725D01*
X150519407Y-132508534D01*
X150568907Y-132472570D01*
X150630093Y-132472570D01*
X150679593Y-132508534D01*
X150681813Y-132511720D01*
X150794023Y-132679655D01*
X150940345Y-132825977D01*
X151112402Y-132940941D01*
X151303580Y-133020130D01*
X151506535Y-133060500D01*
X151506536Y-133060500D01*
X151713464Y-133060500D01*
X151713465Y-133060500D01*
X151916420Y-133020130D01*
X152107598Y-132940941D01*
X152279655Y-132825977D01*
X152425977Y-132679655D01*
X152540941Y-132507598D01*
X152620130Y-132316420D01*
X152660500Y-132113465D01*
X152660500Y-131906535D01*
X152620130Y-131703580D01*
X152540941Y-131512402D01*
X152425977Y-131340345D01*
X152279655Y-131194023D01*
X152107598Y-131079059D01*
X152107599Y-131079059D01*
X152107597Y-131079058D01*
X151916418Y-130999869D01*
X151713467Y-130959500D01*
X151713465Y-130959500D01*
X151506535Y-130959500D01*
X151506532Y-130959500D01*
X151303581Y-130999869D01*
X151112402Y-131079058D01*
X150940348Y-131194020D01*
X150794020Y-131340348D01*
X150681816Y-131508275D01*
X150633766Y-131546155D01*
X150572628Y-131548557D01*
X150521754Y-131514564D01*
X150500576Y-131457161D01*
X150500500Y-131453274D01*
X150500500Y-130026725D01*
X150519407Y-129968534D01*
X150568907Y-129932570D01*
X150630093Y-129932570D01*
X150679593Y-129968534D01*
X150681813Y-129971720D01*
X150794023Y-130139655D01*
X150940345Y-130285977D01*
X151112402Y-130400941D01*
X151303580Y-130480130D01*
X151506535Y-130520500D01*
X151506536Y-130520500D01*
X151713464Y-130520500D01*
X151713465Y-130520500D01*
X151916420Y-130480130D01*
X152107598Y-130400941D01*
X152279655Y-130285977D01*
X152425977Y-130139655D01*
X152540941Y-129967598D01*
X152620130Y-129776420D01*
X152660500Y-129573465D01*
X152660500Y-129366535D01*
X152620130Y-129163580D01*
X152540941Y-128972402D01*
X152425977Y-128800345D01*
X152279655Y-128654023D01*
X152107598Y-128539059D01*
X152107599Y-128539059D01*
X152107597Y-128539058D01*
X151916418Y-128459869D01*
X151713467Y-128419500D01*
X151713465Y-128419500D01*
X151506535Y-128419500D01*
X151506532Y-128419500D01*
X151303581Y-128459869D01*
X151112402Y-128539058D01*
X150940348Y-128654020D01*
X150794020Y-128800348D01*
X150681816Y-128968275D01*
X150633766Y-129006155D01*
X150572628Y-129008557D01*
X150521754Y-128974564D01*
X150500576Y-128917161D01*
X150500500Y-128913274D01*
X150500500Y-127486725D01*
X150519407Y-127428534D01*
X150568907Y-127392570D01*
X150630093Y-127392570D01*
X150679593Y-127428534D01*
X150681813Y-127431720D01*
X150794023Y-127599655D01*
X150940345Y-127745977D01*
X151112402Y-127860941D01*
X151303580Y-127940130D01*
X151506535Y-127980500D01*
X151506536Y-127980500D01*
X151713464Y-127980500D01*
X151713465Y-127980500D01*
X151916420Y-127940130D01*
X152107598Y-127860941D01*
X152279655Y-127745977D01*
X152425977Y-127599655D01*
X152540941Y-127427598D01*
X152620130Y-127236420D01*
X152660500Y-127033465D01*
X152660500Y-126826535D01*
X152620130Y-126623580D01*
X152540941Y-126432402D01*
X152425977Y-126260345D01*
X152279655Y-126114023D01*
X152107598Y-125999059D01*
X152107599Y-125999059D01*
X152107597Y-125999058D01*
X151916418Y-125919869D01*
X151713467Y-125879500D01*
X151713465Y-125879500D01*
X151506535Y-125879500D01*
X151506532Y-125879500D01*
X151303581Y-125919869D01*
X151112402Y-125999058D01*
X150940348Y-126114020D01*
X150794020Y-126260348D01*
X150681816Y-126428275D01*
X150633766Y-126466155D01*
X150572628Y-126468557D01*
X150521754Y-126434564D01*
X150500576Y-126377161D01*
X150500500Y-126373274D01*
X150500500Y-124946725D01*
X150519407Y-124888534D01*
X150568907Y-124852570D01*
X150630093Y-124852570D01*
X150679593Y-124888534D01*
X150681813Y-124891720D01*
X150794023Y-125059655D01*
X150940345Y-125205977D01*
X151112402Y-125320941D01*
X151303580Y-125400130D01*
X151506535Y-125440500D01*
X151506536Y-125440500D01*
X151713464Y-125440500D01*
X151713465Y-125440500D01*
X151916420Y-125400130D01*
X152107598Y-125320941D01*
X152279655Y-125205977D01*
X152425977Y-125059655D01*
X152540941Y-124887598D01*
X152620130Y-124696420D01*
X152660500Y-124493465D01*
X152660500Y-124286535D01*
X152620130Y-124083580D01*
X152540941Y-123892402D01*
X152425977Y-123720345D01*
X152279655Y-123574023D01*
X152107598Y-123459059D01*
X152107599Y-123459059D01*
X152107597Y-123459058D01*
X151916418Y-123379869D01*
X151713467Y-123339500D01*
X151713465Y-123339500D01*
X151506535Y-123339500D01*
X151506532Y-123339500D01*
X151303581Y-123379869D01*
X151112402Y-123459058D01*
X150940348Y-123574020D01*
X150794020Y-123720348D01*
X150681816Y-123888275D01*
X150633766Y-123926155D01*
X150572628Y-123928557D01*
X150521754Y-123894564D01*
X150500576Y-123837161D01*
X150500500Y-123833274D01*
X150500500Y-122564815D01*
X150519407Y-122506624D01*
X150568907Y-122470660D01*
X150607269Y-122466120D01*
X150637911Y-122468532D01*
X151127036Y-121979406D01*
X151144075Y-122042993D01*
X151209901Y-122157007D01*
X151302993Y-122250099D01*
X151417007Y-122315925D01*
X151480591Y-122332962D01*
X150991466Y-122822087D01*
X151007266Y-122833566D01*
X151168559Y-122915749D01*
X151340710Y-122971683D01*
X151519490Y-123000000D01*
X151700510Y-123000000D01*
X151879289Y-122971683D01*
X152051440Y-122915749D01*
X152212730Y-122833568D01*
X152212735Y-122833564D01*
X152228532Y-122822087D01*
X152228532Y-122822086D01*
X151739408Y-122332962D01*
X151802993Y-122315925D01*
X151917007Y-122250099D01*
X152010099Y-122157007D01*
X152075925Y-122042993D01*
X152092962Y-121979408D01*
X152582086Y-122468532D01*
X152582087Y-122468532D01*
X152593564Y-122452735D01*
X152593568Y-122452730D01*
X152675749Y-122291440D01*
X152731683Y-122119289D01*
X152760000Y-121940510D01*
X152760000Y-121759489D01*
X152731683Y-121580710D01*
X152675749Y-121408559D01*
X152593566Y-121247266D01*
X152582087Y-121231466D01*
X152092962Y-121720591D01*
X152075925Y-121657007D01*
X152010099Y-121542993D01*
X151917007Y-121449901D01*
X151802993Y-121384075D01*
X151739406Y-121367036D01*
X152228532Y-120877911D01*
X152212730Y-120866432D01*
X152051440Y-120784250D01*
X151879289Y-120728316D01*
X151700510Y-120700000D01*
X151519490Y-120700000D01*
X151340710Y-120728316D01*
X151168559Y-120784250D01*
X151007264Y-120866434D01*
X150991466Y-120877911D01*
X151480592Y-121367037D01*
X151417007Y-121384075D01*
X151302993Y-121449901D01*
X151209901Y-121542993D01*
X151144075Y-121657007D01*
X151127037Y-121720592D01*
X150637911Y-121231466D01*
X150607271Y-121233879D01*
X150547775Y-121219597D01*
X150508037Y-121173073D01*
X150500500Y-121135184D01*
X150500500Y-119866725D01*
X150519407Y-119808534D01*
X150568907Y-119772570D01*
X150630093Y-119772570D01*
X150679593Y-119808534D01*
X150681813Y-119811720D01*
X150794023Y-119979655D01*
X150940345Y-120125977D01*
X151112402Y-120240941D01*
X151303580Y-120320130D01*
X151506535Y-120360500D01*
X151506536Y-120360500D01*
X151713464Y-120360500D01*
X151713465Y-120360500D01*
X151916420Y-120320130D01*
X152107598Y-120240941D01*
X152279655Y-120125977D01*
X152425977Y-119979655D01*
X152540941Y-119807598D01*
X152620130Y-119616420D01*
X152660500Y-119413465D01*
X152660500Y-119206535D01*
X152620130Y-119003580D01*
X152540941Y-118812402D01*
X152425977Y-118640345D01*
X152279655Y-118494023D01*
X152279651Y-118494020D01*
X152107597Y-118379058D01*
X151916418Y-118299869D01*
X151713467Y-118259500D01*
X151713465Y-118259500D01*
X151506535Y-118259500D01*
X151506532Y-118259500D01*
X151303581Y-118299869D01*
X151112402Y-118379058D01*
X150940348Y-118494020D01*
X150794020Y-118640348D01*
X150681816Y-118808275D01*
X150633766Y-118846155D01*
X150572628Y-118848557D01*
X150521754Y-118814564D01*
X150500576Y-118757161D01*
X150500500Y-118753274D01*
X150500500Y-117326725D01*
X150519407Y-117268534D01*
X150568907Y-117232570D01*
X150630093Y-117232570D01*
X150679593Y-117268534D01*
X150681809Y-117271714D01*
X150689820Y-117283703D01*
X150772413Y-117407314D01*
X150794023Y-117439655D01*
X150940345Y-117585977D01*
X151112402Y-117700941D01*
X151303580Y-117780130D01*
X151506535Y-117820500D01*
X151506536Y-117820500D01*
X151713464Y-117820500D01*
X151713465Y-117820500D01*
X151916420Y-117780130D01*
X152052405Y-117723802D01*
X152113399Y-117719002D01*
X152160292Y-117745263D01*
X155499540Y-121084511D01*
X155499539Y-121084511D01*
X155555489Y-121140460D01*
X155624007Y-121180019D01*
X155624011Y-121180021D01*
X155700435Y-121200499D01*
X155700437Y-121200500D01*
X155700438Y-121200500D01*
X157442535Y-121200500D01*
X157500726Y-121219407D01*
X157512539Y-121229496D01*
X157668342Y-121385299D01*
X157671968Y-121392416D01*
X157678431Y-121397112D01*
X157685594Y-121419160D01*
X157696119Y-121439816D01*
X157697338Y-121455303D01*
X157697338Y-121550304D01*
X157678431Y-121608495D01*
X157668347Y-121620301D01*
X157631642Y-121657007D01*
X157597335Y-121691314D01*
X157597334Y-121691315D01*
X157531447Y-121805434D01*
X157531446Y-121805439D01*
X157497338Y-121932733D01*
X157497338Y-122064517D01*
X157512014Y-122119289D01*
X157531447Y-122191815D01*
X157597334Y-122305934D01*
X157597336Y-122305936D01*
X157597338Y-122305939D01*
X157690524Y-122399125D01*
X157690526Y-122399126D01*
X157690528Y-122399128D01*
X157804648Y-122465015D01*
X157804646Y-122465015D01*
X157804650Y-122465016D01*
X157804652Y-122465017D01*
X157931946Y-122499125D01*
X157931948Y-122499125D01*
X158063728Y-122499125D01*
X158063730Y-122499125D01*
X158191024Y-122465017D01*
X158191026Y-122465015D01*
X158191028Y-122465015D01*
X158305147Y-122399128D01*
X158305147Y-122399127D01*
X158305152Y-122399125D01*
X158398338Y-122305939D01*
X158406709Y-122291440D01*
X158464228Y-122191815D01*
X158464228Y-122191813D01*
X158464230Y-122191811D01*
X158498338Y-122064517D01*
X158498338Y-121932733D01*
X158464230Y-121805439D01*
X158464228Y-121805436D01*
X158464228Y-121805434D01*
X158398341Y-121691315D01*
X158398339Y-121691313D01*
X158398338Y-121691311D01*
X158327332Y-121620305D01*
X158299557Y-121565791D01*
X158298338Y-121550304D01*
X158298338Y-121250261D01*
X158298337Y-121250259D01*
X158293301Y-121231466D01*
X158277859Y-121173835D01*
X158267254Y-121155467D01*
X158238298Y-121105313D01*
X158182350Y-121049364D01*
X157792525Y-120659540D01*
X157761800Y-120641800D01*
X157761800Y-120641801D01*
X157724003Y-120619979D01*
X157724002Y-120619978D01*
X157724001Y-120619978D01*
X157647578Y-120599500D01*
X157647576Y-120599500D01*
X155905479Y-120599500D01*
X155847288Y-120580593D01*
X155835475Y-120570504D01*
X152585263Y-117320292D01*
X152557486Y-117265775D01*
X152563802Y-117212405D01*
X152620130Y-117076420D01*
X152660500Y-116873465D01*
X152660500Y-116666535D01*
X152620130Y-116463580D01*
X152540941Y-116272402D01*
X152425977Y-116100345D01*
X152279655Y-115954023D01*
X152279651Y-115954020D01*
X152107597Y-115839058D01*
X151916418Y-115759869D01*
X151713467Y-115719500D01*
X151713465Y-115719500D01*
X151506535Y-115719500D01*
X151506532Y-115719500D01*
X151303581Y-115759869D01*
X151112402Y-115839058D01*
X150940348Y-115954020D01*
X150794020Y-116100348D01*
X150681816Y-116268275D01*
X150633766Y-116306155D01*
X150572628Y-116308557D01*
X150521754Y-116274564D01*
X150500576Y-116217161D01*
X150500500Y-116213274D01*
X150500500Y-114786725D01*
X150519407Y-114728534D01*
X150568907Y-114692570D01*
X150630093Y-114692570D01*
X150679593Y-114728534D01*
X150681813Y-114731720D01*
X150794023Y-114899655D01*
X150940345Y-115045977D01*
X151112402Y-115160941D01*
X151303580Y-115240130D01*
X151506535Y-115280500D01*
X151506536Y-115280500D01*
X151713464Y-115280500D01*
X151713465Y-115280500D01*
X151916420Y-115240130D01*
X152107598Y-115160941D01*
X152279655Y-115045977D01*
X152425977Y-114899655D01*
X152540941Y-114727598D01*
X152620130Y-114536420D01*
X152660500Y-114333465D01*
X152660500Y-114126535D01*
X152620130Y-113923580D01*
X152540941Y-113732402D01*
X152425977Y-113560345D01*
X152279655Y-113414023D01*
X152107598Y-113299059D01*
X152107599Y-113299059D01*
X152107597Y-113299058D01*
X151916418Y-113219869D01*
X151713467Y-113179500D01*
X151713465Y-113179500D01*
X151506535Y-113179500D01*
X151506532Y-113179500D01*
X151303581Y-113219869D01*
X151112402Y-113299058D01*
X150940348Y-113414020D01*
X150794020Y-113560348D01*
X150681816Y-113728275D01*
X150633766Y-113766155D01*
X150572628Y-113768557D01*
X150521754Y-113734564D01*
X150500576Y-113677161D01*
X150500500Y-113673274D01*
X150500500Y-112246725D01*
X150519407Y-112188534D01*
X150568907Y-112152570D01*
X150630093Y-112152570D01*
X150679593Y-112188534D01*
X150681816Y-112191724D01*
X150766805Y-112318921D01*
X150794023Y-112359655D01*
X150940345Y-112505977D01*
X151112402Y-112620941D01*
X151303580Y-112700130D01*
X151506535Y-112740500D01*
X151506536Y-112740500D01*
X151713464Y-112740500D01*
X151713465Y-112740500D01*
X151916420Y-112700130D01*
X152107598Y-112620941D01*
X152279655Y-112505977D01*
X152425977Y-112359655D01*
X152540941Y-112187598D01*
X152620130Y-111996420D01*
X152660500Y-111793465D01*
X152660500Y-111586535D01*
X152620130Y-111383580D01*
X152540941Y-111192402D01*
X152425977Y-111020345D01*
X152279655Y-110874023D01*
X152107598Y-110759059D01*
X152107599Y-110759059D01*
X152107597Y-110759058D01*
X151916418Y-110679869D01*
X151713467Y-110639500D01*
X151713465Y-110639500D01*
X151506535Y-110639500D01*
X151506532Y-110639500D01*
X151303581Y-110679869D01*
X151112402Y-110759058D01*
X150940348Y-110874020D01*
X150794020Y-111020348D01*
X150681816Y-111188275D01*
X150633766Y-111226155D01*
X150572628Y-111228557D01*
X150521754Y-111194564D01*
X150500576Y-111137161D01*
X150500500Y-111133274D01*
X150500500Y-109864815D01*
X150519407Y-109806624D01*
X150568907Y-109770660D01*
X150607269Y-109766120D01*
X150637911Y-109768532D01*
X151127036Y-109279406D01*
X151144075Y-109342993D01*
X151209901Y-109457007D01*
X151302993Y-109550099D01*
X151417007Y-109615925D01*
X151480591Y-109632962D01*
X150991466Y-110122087D01*
X151007266Y-110133566D01*
X151168559Y-110215749D01*
X151340710Y-110271683D01*
X151519490Y-110300000D01*
X151700510Y-110300000D01*
X151879289Y-110271683D01*
X152051440Y-110215749D01*
X152212730Y-110133568D01*
X152212735Y-110133564D01*
X152228532Y-110122087D01*
X152228532Y-110122086D01*
X151739408Y-109632962D01*
X151802993Y-109615925D01*
X151917007Y-109550099D01*
X152010099Y-109457007D01*
X152075925Y-109342993D01*
X152092962Y-109279408D01*
X152582086Y-109768532D01*
X152582087Y-109768532D01*
X152593564Y-109752735D01*
X152593568Y-109752730D01*
X152675749Y-109591440D01*
X152731683Y-109419289D01*
X152760000Y-109240510D01*
X152760000Y-109059489D01*
X152731683Y-108880710D01*
X152675749Y-108708559D01*
X152593566Y-108547266D01*
X152582087Y-108531466D01*
X152092962Y-109020591D01*
X152075925Y-108957007D01*
X152010099Y-108842993D01*
X151917007Y-108749901D01*
X151802993Y-108684075D01*
X151739406Y-108667036D01*
X152228532Y-108177911D01*
X152212730Y-108166432D01*
X152051440Y-108084250D01*
X151879289Y-108028316D01*
X151700510Y-108000000D01*
X151519490Y-108000000D01*
X151340710Y-108028316D01*
X151168559Y-108084250D01*
X151007264Y-108166434D01*
X150991466Y-108177911D01*
X151480592Y-108667037D01*
X151417007Y-108684075D01*
X151302993Y-108749901D01*
X151209901Y-108842993D01*
X151144075Y-108957007D01*
X151127037Y-109020592D01*
X150637911Y-108531466D01*
X150607271Y-108533879D01*
X150547775Y-108519597D01*
X150508037Y-108473073D01*
X150500500Y-108435184D01*
X150500500Y-107166725D01*
X150519407Y-107108534D01*
X150568907Y-107072570D01*
X150630093Y-107072570D01*
X150679593Y-107108534D01*
X150681813Y-107111720D01*
X150794023Y-107279655D01*
X150940345Y-107425977D01*
X151112402Y-107540941D01*
X151303580Y-107620130D01*
X151506535Y-107660500D01*
X151506536Y-107660500D01*
X151713464Y-107660500D01*
X151713465Y-107660500D01*
X151916420Y-107620130D01*
X152107598Y-107540941D01*
X152279655Y-107425977D01*
X152425977Y-107279655D01*
X152540941Y-107107598D01*
X152620130Y-106916420D01*
X152660500Y-106713465D01*
X152660500Y-106506535D01*
X152620130Y-106303580D01*
X152540941Y-106112402D01*
X152425977Y-105940345D01*
X152279655Y-105794023D01*
X152238299Y-105766390D01*
X152107597Y-105679058D01*
X151916418Y-105599869D01*
X151713467Y-105559500D01*
X151713465Y-105559500D01*
X151506535Y-105559500D01*
X151506532Y-105559500D01*
X151303581Y-105599869D01*
X151112402Y-105679058D01*
X150940348Y-105794020D01*
X150794020Y-105940348D01*
X150681816Y-106108275D01*
X150633766Y-106146155D01*
X150572628Y-106148557D01*
X150521754Y-106114564D01*
X150500576Y-106057161D01*
X150500500Y-106053274D01*
X150500500Y-104626725D01*
X150519407Y-104568534D01*
X150568907Y-104532570D01*
X150630093Y-104532570D01*
X150679593Y-104568534D01*
X150681813Y-104571720D01*
X150794023Y-104739655D01*
X150940345Y-104885977D01*
X151112402Y-105000941D01*
X151303580Y-105080130D01*
X151506535Y-105120500D01*
X151506536Y-105120500D01*
X151713464Y-105120500D01*
X151713465Y-105120500D01*
X151916420Y-105080130D01*
X152107598Y-105000941D01*
X152279655Y-104885977D01*
X152425977Y-104739655D01*
X152540941Y-104567598D01*
X152620130Y-104376420D01*
X152660500Y-104173465D01*
X152660500Y-103966535D01*
X152620130Y-103763580D01*
X152540941Y-103572402D01*
X152425977Y-103400345D01*
X152279655Y-103254023D01*
X152107598Y-103139059D01*
X152107599Y-103139059D01*
X152107597Y-103139058D01*
X151916418Y-103059869D01*
X151713467Y-103019500D01*
X151713465Y-103019500D01*
X151506535Y-103019500D01*
X151506532Y-103019500D01*
X151303581Y-103059869D01*
X151112402Y-103139058D01*
X150940348Y-103254020D01*
X150794020Y-103400348D01*
X150681816Y-103568275D01*
X150633766Y-103606155D01*
X150572628Y-103608557D01*
X150521754Y-103574564D01*
X150500576Y-103517161D01*
X150500500Y-103513274D01*
X150500500Y-102086725D01*
X150519407Y-102028534D01*
X150568907Y-101992570D01*
X150630093Y-101992570D01*
X150679593Y-102028534D01*
X150681813Y-102031720D01*
X150794023Y-102199655D01*
X150940345Y-102345977D01*
X151112402Y-102460941D01*
X151303580Y-102540130D01*
X151506535Y-102580500D01*
X151506536Y-102580500D01*
X151713464Y-102580500D01*
X151713465Y-102580500D01*
X151916420Y-102540130D01*
X152107598Y-102460941D01*
X152279655Y-102345977D01*
X152425977Y-102199655D01*
X152540941Y-102027598D01*
X152620130Y-101836420D01*
X152660500Y-101633465D01*
X152660500Y-101426535D01*
X152620130Y-101223580D01*
X152540941Y-101032402D01*
X152425977Y-100860345D01*
X152279655Y-100714023D01*
X152279651Y-100714020D01*
X152107597Y-100599058D01*
X151916418Y-100519869D01*
X151713467Y-100479500D01*
X151713465Y-100479500D01*
X151506535Y-100479500D01*
X151506532Y-100479500D01*
X151303581Y-100519869D01*
X151112402Y-100599058D01*
X150940348Y-100714020D01*
X150794020Y-100860348D01*
X150681816Y-101028275D01*
X150633766Y-101066155D01*
X150572628Y-101068557D01*
X150521754Y-101034564D01*
X150500576Y-100977161D01*
X150500500Y-100973274D01*
X150500500Y-99546725D01*
X150519407Y-99488534D01*
X150568907Y-99452570D01*
X150630093Y-99452570D01*
X150679593Y-99488534D01*
X150681813Y-99491720D01*
X150794023Y-99659655D01*
X150940345Y-99805977D01*
X151112402Y-99920941D01*
X151303580Y-100000130D01*
X151506535Y-100040500D01*
X151506536Y-100040500D01*
X151713464Y-100040500D01*
X151713465Y-100040500D01*
X151916420Y-100000130D01*
X152052405Y-99943802D01*
X152113399Y-99939002D01*
X152160292Y-99965263D01*
X153268504Y-101073475D01*
X153296281Y-101127992D01*
X153297500Y-101143479D01*
X153297500Y-115804665D01*
X153298347Y-115811099D01*
X153297659Y-115811189D01*
X153299500Y-115825161D01*
X153299500Y-116685507D01*
X153319978Y-116761931D01*
X153319979Y-116761932D01*
X153332727Y-116784012D01*
X153359540Y-116830454D01*
X154570903Y-118041817D01*
X154598679Y-118096332D01*
X154599898Y-118111819D01*
X154599898Y-118114545D01*
X154629977Y-118226804D01*
X154634007Y-118241843D01*
X154699894Y-118355962D01*
X154699896Y-118355964D01*
X154699898Y-118355967D01*
X154793084Y-118449153D01*
X154793086Y-118449154D01*
X154793088Y-118449156D01*
X154907208Y-118515043D01*
X154907206Y-118515043D01*
X154907210Y-118515044D01*
X154907212Y-118515045D01*
X155034506Y-118549153D01*
X155034508Y-118549153D01*
X155166288Y-118549153D01*
X155166290Y-118549153D01*
X155293584Y-118515045D01*
X155293586Y-118515043D01*
X155293588Y-118515043D01*
X155407707Y-118449156D01*
X155407707Y-118449155D01*
X155407712Y-118449153D01*
X155500898Y-118355967D01*
X155533286Y-118299869D01*
X155566788Y-118241843D01*
X155566788Y-118241841D01*
X155566790Y-118241839D01*
X155600898Y-118114545D01*
X155600898Y-117982761D01*
X155566790Y-117855467D01*
X155566788Y-117855464D01*
X155566788Y-117855462D01*
X155500901Y-117741343D01*
X155500899Y-117741341D01*
X155500898Y-117741339D01*
X155455687Y-117696128D01*
X155427912Y-117641614D01*
X155437483Y-117581182D01*
X155450893Y-117562729D01*
X155450549Y-117562465D01*
X155454498Y-117557317D01*
X155520390Y-117443190D01*
X155520390Y-117443188D01*
X155520392Y-117443186D01*
X155549876Y-117333147D01*
X155583199Y-117281836D01*
X155640320Y-117259909D01*
X155645502Y-117259773D01*
X155752478Y-117259773D01*
X155752480Y-117259773D01*
X155879774Y-117225665D01*
X155879776Y-117225663D01*
X155879778Y-117225663D01*
X155993897Y-117159776D01*
X155993897Y-117159775D01*
X155993902Y-117159773D01*
X156087088Y-117066587D01*
X156152980Y-116952459D01*
X156187088Y-116825165D01*
X156187088Y-116693381D01*
X156152980Y-116566087D01*
X156152978Y-116566084D01*
X156152978Y-116566082D01*
X156087091Y-116451963D01*
X156087089Y-116451961D01*
X156087088Y-116451959D01*
X155993902Y-116358773D01*
X155993899Y-116358771D01*
X155993897Y-116358769D01*
X155879777Y-116292882D01*
X155879779Y-116292882D01*
X155811413Y-116274564D01*
X155752480Y-116258773D01*
X155620696Y-116258773D01*
X155524640Y-116284511D01*
X155489028Y-116294053D01*
X155427926Y-116290850D01*
X155393401Y-116268430D01*
X154731496Y-115606525D01*
X154728149Y-115599956D01*
X154722133Y-115595698D01*
X154714953Y-115574057D01*
X154703719Y-115552008D01*
X154702508Y-115537746D01*
X154702500Y-115537099D01*
X154702500Y-115395338D01*
X154700661Y-115388476D01*
X154700508Y-115376064D01*
X154700615Y-115375718D01*
X154700500Y-115374839D01*
X154700500Y-105234108D01*
X160299500Y-105234108D01*
X160299500Y-105365892D01*
X160329579Y-105478151D01*
X160333609Y-105493190D01*
X160399496Y-105607309D01*
X160399498Y-105607311D01*
X160399500Y-105607314D01*
X160492686Y-105700500D01*
X160492688Y-105700501D01*
X160492690Y-105700503D01*
X160606810Y-105766390D01*
X160606808Y-105766390D01*
X160606812Y-105766391D01*
X160606814Y-105766392D01*
X160734108Y-105800500D01*
X160734110Y-105800500D01*
X160865890Y-105800500D01*
X160865892Y-105800500D01*
X160993186Y-105766392D01*
X160993188Y-105766390D01*
X160993190Y-105766390D01*
X161107309Y-105700503D01*
X161107309Y-105700502D01*
X161107314Y-105700500D01*
X161178319Y-105629494D01*
X161232834Y-105601719D01*
X161248321Y-105600500D01*
X163752679Y-105600500D01*
X163810870Y-105619407D01*
X163822676Y-105629490D01*
X163893686Y-105700500D01*
X163893688Y-105700501D01*
X163893690Y-105700503D01*
X164007810Y-105766390D01*
X164007808Y-105766390D01*
X164007812Y-105766391D01*
X164007814Y-105766392D01*
X164135108Y-105800500D01*
X164135110Y-105800500D01*
X164266890Y-105800500D01*
X164266892Y-105800500D01*
X164394186Y-105766392D01*
X164394188Y-105766390D01*
X164394190Y-105766390D01*
X164508309Y-105700503D01*
X164508309Y-105700502D01*
X164508314Y-105700500D01*
X164601500Y-105607314D01*
X164605798Y-105599870D01*
X164667390Y-105493190D01*
X164667390Y-105493188D01*
X164667392Y-105493186D01*
X164701500Y-105365892D01*
X164701500Y-105234108D01*
X164667392Y-105106814D01*
X164667390Y-105106811D01*
X164667390Y-105106809D01*
X164601503Y-104992690D01*
X164601501Y-104992688D01*
X164601500Y-104992686D01*
X164508314Y-104899500D01*
X164508311Y-104899498D01*
X164508309Y-104899496D01*
X164394189Y-104833609D01*
X164394191Y-104833609D01*
X164344799Y-104820375D01*
X164266892Y-104799500D01*
X164135108Y-104799500D01*
X164057200Y-104820375D01*
X164007809Y-104833609D01*
X163893690Y-104899496D01*
X163893689Y-104899497D01*
X163893686Y-104899499D01*
X163893686Y-104899500D01*
X163822680Y-104970505D01*
X163768166Y-104998281D01*
X163752679Y-104999500D01*
X161248321Y-104999500D01*
X161190130Y-104980593D01*
X161178323Y-104970509D01*
X161107314Y-104899500D01*
X161107311Y-104899498D01*
X161107309Y-104899496D01*
X160993189Y-104833609D01*
X160993191Y-104833609D01*
X160943799Y-104820375D01*
X160865892Y-104799500D01*
X160734108Y-104799500D01*
X160656200Y-104820375D01*
X160606809Y-104833609D01*
X160492690Y-104899496D01*
X160399496Y-104992690D01*
X160333609Y-105106809D01*
X160333608Y-105106814D01*
X160299500Y-105234108D01*
X154700500Y-105234108D01*
X154700500Y-95001204D01*
X155380000Y-95001204D01*
X155380000Y-95379999D01*
X155380001Y-95380000D01*
X155880000Y-95380000D01*
X155880000Y-95880000D01*
X155380001Y-95880000D01*
X155380000Y-95880001D01*
X155380000Y-96258795D01*
X155410742Y-96413349D01*
X155471048Y-96558940D01*
X155471052Y-96558949D01*
X155558599Y-96689969D01*
X155558602Y-96689973D01*
X155670026Y-96801397D01*
X155670030Y-96801400D01*
X155801058Y-96888951D01*
X155929999Y-96942360D01*
X155930000Y-96942359D01*
X155930000Y-96346988D01*
X155939940Y-96364205D01*
X155995795Y-96420060D01*
X156064204Y-96459556D01*
X156140504Y-96480000D01*
X156219496Y-96480000D01*
X156295796Y-96459556D01*
X156364205Y-96420060D01*
X156420060Y-96364205D01*
X156430000Y-96346988D01*
X156430000Y-96942360D01*
X156558941Y-96888951D01*
X156689969Y-96801400D01*
X156689973Y-96801397D01*
X156801397Y-96689973D01*
X156801400Y-96689969D01*
X156888947Y-96558949D01*
X156888951Y-96558940D01*
X156949257Y-96413349D01*
X156979999Y-96258795D01*
X156980000Y-96258792D01*
X156980000Y-95880001D01*
X156979999Y-95880000D01*
X156480000Y-95880000D01*
X156480000Y-95380000D01*
X156990236Y-95380000D01*
X157023878Y-95362857D01*
X157084311Y-95372427D01*
X157125104Y-95411137D01*
X157149482Y-95453360D01*
X157149485Y-95453365D01*
X157256635Y-95560515D01*
X157256637Y-95560516D01*
X157256639Y-95560518D01*
X157387861Y-95636279D01*
X157387859Y-95636279D01*
X157387863Y-95636280D01*
X157387865Y-95636281D01*
X157534234Y-95675500D01*
X157534236Y-95675500D01*
X157685764Y-95675500D01*
X157685766Y-95675500D01*
X157832135Y-95636281D01*
X157832137Y-95636279D01*
X157832139Y-95636279D01*
X157963360Y-95560518D01*
X157963360Y-95560517D01*
X157963365Y-95560515D01*
X158070515Y-95453365D01*
X158094894Y-95411139D01*
X158146279Y-95322139D01*
X158146279Y-95322137D01*
X158146281Y-95322135D01*
X158185500Y-95175766D01*
X158185500Y-95024234D01*
X162814500Y-95024234D01*
X162814500Y-95175766D01*
X162847788Y-95300000D01*
X162853720Y-95322139D01*
X162929481Y-95453360D01*
X162929483Y-95453362D01*
X162929485Y-95453365D01*
X163036635Y-95560515D01*
X163036637Y-95560516D01*
X163036639Y-95560518D01*
X163167861Y-95636279D01*
X163167859Y-95636279D01*
X163167863Y-95636280D01*
X163167865Y-95636281D01*
X163314234Y-95675500D01*
X163314236Y-95675500D01*
X163465764Y-95675500D01*
X163465766Y-95675500D01*
X163612135Y-95636281D01*
X163612137Y-95636279D01*
X163612139Y-95636279D01*
X163743360Y-95560518D01*
X163743360Y-95560517D01*
X163743365Y-95560515D01*
X163850515Y-95453365D01*
X163874894Y-95411138D01*
X163920363Y-95370197D01*
X163981214Y-95363801D01*
X164011049Y-95380000D01*
X164520000Y-95380000D01*
X164520000Y-95880000D01*
X164020001Y-95880000D01*
X164020000Y-95880001D01*
X164020000Y-96258795D01*
X164050742Y-96413349D01*
X164111048Y-96558940D01*
X164111052Y-96558949D01*
X164198599Y-96689969D01*
X164198602Y-96689973D01*
X164310026Y-96801397D01*
X164310030Y-96801400D01*
X164441058Y-96888951D01*
X164569999Y-96942360D01*
X164570000Y-96942359D01*
X164570000Y-96346988D01*
X164579940Y-96364205D01*
X164635795Y-96420060D01*
X164704204Y-96459556D01*
X164780504Y-96480000D01*
X164859496Y-96480000D01*
X164935796Y-96459556D01*
X165004205Y-96420060D01*
X165060060Y-96364205D01*
X165070000Y-96346988D01*
X165070000Y-96942360D01*
X165198941Y-96888951D01*
X165329969Y-96801400D01*
X165329973Y-96801397D01*
X165441397Y-96689973D01*
X165441400Y-96689969D01*
X165528947Y-96558949D01*
X165528951Y-96558940D01*
X165589257Y-96413349D01*
X165619999Y-96258795D01*
X165620000Y-96258792D01*
X165620000Y-95880001D01*
X165619999Y-95880000D01*
X165120000Y-95880000D01*
X165120000Y-95380000D01*
X165619999Y-95380000D01*
X165620000Y-95379999D01*
X165620000Y-95001207D01*
X165619999Y-95001204D01*
X165589257Y-94846650D01*
X165528951Y-94701059D01*
X165528947Y-94701050D01*
X165441400Y-94570030D01*
X165441397Y-94570026D01*
X165329973Y-94458602D01*
X165329969Y-94458599D01*
X165198949Y-94371052D01*
X165198940Y-94371048D01*
X165070000Y-94317639D01*
X165070000Y-94913011D01*
X165060060Y-94895795D01*
X165004205Y-94839940D01*
X164935796Y-94800444D01*
X164859496Y-94780000D01*
X164780504Y-94780000D01*
X164704204Y-94800444D01*
X164635795Y-94839940D01*
X164579940Y-94895795D01*
X164570000Y-94913011D01*
X164570000Y-94317639D01*
X164441059Y-94371048D01*
X164441050Y-94371052D01*
X164310030Y-94458599D01*
X164310026Y-94458602D01*
X164198602Y-94570026D01*
X164198599Y-94570030D01*
X164111052Y-94701050D01*
X164111048Y-94701059D01*
X164068046Y-94804875D01*
X164028309Y-94851401D01*
X163968814Y-94865684D01*
X163912286Y-94842269D01*
X163890846Y-94816489D01*
X163850518Y-94746639D01*
X163850516Y-94746637D01*
X163850515Y-94746635D01*
X163743365Y-94639485D01*
X163743362Y-94639483D01*
X163743360Y-94639481D01*
X163612138Y-94563720D01*
X163612140Y-94563720D01*
X163555347Y-94548503D01*
X163465766Y-94524500D01*
X163314234Y-94524500D01*
X163224652Y-94548503D01*
X163167860Y-94563720D01*
X163036639Y-94639481D01*
X162929481Y-94746639D01*
X162853720Y-94877860D01*
X162842394Y-94920130D01*
X162814500Y-95024234D01*
X158185500Y-95024234D01*
X158146281Y-94877865D01*
X158146279Y-94877862D01*
X158146279Y-94877860D01*
X158070518Y-94746639D01*
X158070516Y-94746637D01*
X158070515Y-94746635D01*
X157963365Y-94639485D01*
X157963362Y-94639483D01*
X157963360Y-94639481D01*
X157832138Y-94563720D01*
X157832140Y-94563720D01*
X157775347Y-94548503D01*
X157685766Y-94524500D01*
X157534234Y-94524500D01*
X157444652Y-94548503D01*
X157387860Y-94563720D01*
X157256639Y-94639481D01*
X157149483Y-94746637D01*
X157109153Y-94816490D01*
X157063683Y-94857430D01*
X157002833Y-94863825D01*
X156949845Y-94833232D01*
X156931953Y-94804874D01*
X156888953Y-94701062D01*
X156888947Y-94701050D01*
X156801400Y-94570030D01*
X156801397Y-94570026D01*
X156689973Y-94458602D01*
X156689969Y-94458599D01*
X156558949Y-94371052D01*
X156558940Y-94371048D01*
X156430000Y-94317639D01*
X156430000Y-94913011D01*
X156420060Y-94895795D01*
X156364205Y-94839940D01*
X156295796Y-94800444D01*
X156219496Y-94780000D01*
X156140504Y-94780000D01*
X156064204Y-94800444D01*
X155995795Y-94839940D01*
X155939940Y-94895795D01*
X155930000Y-94913011D01*
X155930000Y-94317639D01*
X155801059Y-94371048D01*
X155801050Y-94371052D01*
X155670030Y-94458599D01*
X155670026Y-94458602D01*
X155558602Y-94570026D01*
X155558599Y-94570030D01*
X155471052Y-94701050D01*
X155471048Y-94701059D01*
X155410742Y-94846650D01*
X155380000Y-95001204D01*
X154700500Y-95001204D01*
X154700500Y-94120437D01*
X154700499Y-94120435D01*
X154680021Y-94044011D01*
X154680019Y-94044007D01*
X154640460Y-93975489D01*
X154584511Y-93919539D01*
X154584511Y-93919540D01*
X152689496Y-92024525D01*
X152661719Y-91970008D01*
X152660500Y-91954521D01*
X152660500Y-90599500D01*
X152679407Y-90541309D01*
X152728907Y-90505345D01*
X152759500Y-90500500D01*
X155466614Y-90500500D01*
X155524805Y-90519407D01*
G37*
%TD.AperFunction*%
%TA.AperFunction,Conductor*%
G36*
X161397101Y-121823430D02*
G01*
X161409265Y-121840171D01*
X161448030Y-121907314D01*
X161541216Y-122000500D01*
X161541218Y-122000501D01*
X161541220Y-122000503D01*
X161655340Y-122066390D01*
X161655338Y-122066390D01*
X161655342Y-122066391D01*
X161655344Y-122066392D01*
X161726925Y-122085572D01*
X161778238Y-122118895D01*
X161800165Y-122176016D01*
X161800301Y-122181198D01*
X161800301Y-138490365D01*
X161820779Y-138566789D01*
X161820780Y-138566790D01*
X161851426Y-138619870D01*
X161860341Y-138635312D01*
X161860344Y-138635315D01*
X162064736Y-138839708D01*
X162092513Y-138894224D01*
X162086196Y-138947596D01*
X162029870Y-139083578D01*
X162029870Y-139083580D01*
X161989500Y-139286532D01*
X161989500Y-139493467D01*
X162029869Y-139696418D01*
X162109058Y-139887597D01*
X162189863Y-140008531D01*
X162224023Y-140059655D01*
X162370345Y-140205977D01*
X162370348Y-140205979D01*
X162538276Y-140318184D01*
X162576156Y-140366234D01*
X162578558Y-140427372D01*
X162544566Y-140478246D01*
X162487162Y-140499424D01*
X162483275Y-140499500D01*
X161214816Y-140499500D01*
X161156625Y-140480593D01*
X161120661Y-140431093D01*
X161116121Y-140392732D01*
X161118532Y-140362086D01*
X160629408Y-139872962D01*
X160692993Y-139855925D01*
X160807007Y-139790099D01*
X160900099Y-139697007D01*
X160965925Y-139582993D01*
X160982962Y-139519408D01*
X161472086Y-140008532D01*
X161472087Y-140008532D01*
X161483564Y-139992735D01*
X161483568Y-139992730D01*
X161565749Y-139831440D01*
X161621683Y-139659289D01*
X161650000Y-139480510D01*
X161650000Y-139299489D01*
X161621683Y-139120710D01*
X161565749Y-138948559D01*
X161483566Y-138787266D01*
X161472087Y-138771466D01*
X160982962Y-139260591D01*
X160965925Y-139197007D01*
X160900099Y-139082993D01*
X160807007Y-138989901D01*
X160692993Y-138924075D01*
X160629406Y-138907036D01*
X161118532Y-138417911D01*
X161102730Y-138406432D01*
X160941440Y-138324250D01*
X160769289Y-138268316D01*
X160590510Y-138240000D01*
X160409490Y-138240000D01*
X160230710Y-138268316D01*
X160058559Y-138324250D01*
X159897264Y-138406434D01*
X159881466Y-138417911D01*
X160370592Y-138907037D01*
X160307007Y-138924075D01*
X160192993Y-138989901D01*
X160099901Y-139082993D01*
X160034075Y-139197007D01*
X160017037Y-139260592D01*
X159527911Y-138771466D01*
X159516434Y-138787264D01*
X159434250Y-138948559D01*
X159378316Y-139120710D01*
X159350000Y-139299489D01*
X159350000Y-139480510D01*
X159378316Y-139659289D01*
X159434250Y-139831440D01*
X159516432Y-139992730D01*
X159527911Y-140008531D01*
X160017036Y-139519406D01*
X160034075Y-139582993D01*
X160099901Y-139697007D01*
X160192993Y-139790099D01*
X160307007Y-139855925D01*
X160370591Y-139872962D01*
X159881466Y-140362087D01*
X159883879Y-140392731D01*
X159869596Y-140452226D01*
X159823071Y-140491963D01*
X159785184Y-140499500D01*
X159062962Y-140499500D01*
X159004771Y-140480593D01*
X158968807Y-140431093D01*
X158968807Y-140369907D01*
X158980643Y-140345503D01*
X158998867Y-140318231D01*
X159010500Y-140259748D01*
X159010500Y-138520252D01*
X158998867Y-138461769D01*
X158954552Y-138395448D01*
X158954548Y-138395445D01*
X158888233Y-138351134D01*
X158888231Y-138351133D01*
X158888228Y-138351132D01*
X158888227Y-138351132D01*
X158829758Y-138339501D01*
X158829748Y-138339500D01*
X158829747Y-138339500D01*
X158359500Y-138339500D01*
X158301309Y-138320593D01*
X158265345Y-138271093D01*
X158260500Y-138240500D01*
X158260500Y-125205478D01*
X158279407Y-125147287D01*
X158289490Y-125135480D01*
X161038990Y-122385981D01*
X161078552Y-122317458D01*
X161099030Y-122241032D01*
X161099030Y-122161908D01*
X161099030Y-122048321D01*
X161117937Y-121990130D01*
X161128020Y-121978323D01*
X161199030Y-121907314D01*
X161237793Y-121840173D01*
X161283263Y-121799233D01*
X161344113Y-121792837D01*
X161397101Y-121823430D01*
G37*
%TD.AperFunction*%
%TA.AperFunction,Conductor*%
G36*
X168232112Y-121983965D02*
G01*
X168254613Y-122032773D01*
X168268316Y-122119289D01*
X168324250Y-122291440D01*
X168406432Y-122452730D01*
X168417912Y-122468532D01*
X168907037Y-121979408D01*
X168924075Y-122042993D01*
X168989901Y-122157007D01*
X169082993Y-122250099D01*
X169197007Y-122315925D01*
X169260591Y-122332962D01*
X168771466Y-122822087D01*
X168787266Y-122833566D01*
X168948559Y-122915749D01*
X169120710Y-122971683D01*
X169299490Y-123000000D01*
X169480510Y-123000000D01*
X169659289Y-122971683D01*
X169831440Y-122915749D01*
X169992730Y-122833568D01*
X169992735Y-122833564D01*
X170008532Y-122822087D01*
X170008532Y-122822086D01*
X169519408Y-122332962D01*
X169582993Y-122315925D01*
X169697007Y-122250099D01*
X169790099Y-122157007D01*
X169855925Y-122042993D01*
X169872962Y-121979408D01*
X170362086Y-122468532D01*
X170392732Y-122466121D01*
X170452227Y-122480404D01*
X170491964Y-122526930D01*
X170499500Y-122564816D01*
X170499500Y-123833274D01*
X170480593Y-123891465D01*
X170431093Y-123927429D01*
X170369907Y-123927429D01*
X170320407Y-123891465D01*
X170318184Y-123888275D01*
X170205979Y-123720348D01*
X170205977Y-123720345D01*
X170059655Y-123574023D01*
X169887598Y-123459059D01*
X169887599Y-123459059D01*
X169887597Y-123459058D01*
X169696418Y-123379869D01*
X169493467Y-123339500D01*
X169493465Y-123339500D01*
X169286535Y-123339500D01*
X169286532Y-123339500D01*
X169083581Y-123379869D01*
X168892402Y-123459058D01*
X168720348Y-123574020D01*
X168574020Y-123720348D01*
X168459058Y-123892402D01*
X168379869Y-124083581D01*
X168339500Y-124286532D01*
X168339500Y-124493467D01*
X168379869Y-124696418D01*
X168459058Y-124887597D01*
X168574020Y-125059651D01*
X168574023Y-125059655D01*
X168720345Y-125205977D01*
X168892402Y-125320941D01*
X169083580Y-125400130D01*
X169286535Y-125440500D01*
X169286536Y-125440500D01*
X169493464Y-125440500D01*
X169493465Y-125440500D01*
X169696420Y-125400130D01*
X169887598Y-125320941D01*
X170059655Y-125205977D01*
X170205977Y-125059655D01*
X170318184Y-124891723D01*
X170366234Y-124853844D01*
X170427372Y-124851442D01*
X170478246Y-124885434D01*
X170499424Y-124942838D01*
X170499500Y-124946725D01*
X170499500Y-126373274D01*
X170480593Y-126431465D01*
X170431093Y-126467429D01*
X170369907Y-126467429D01*
X170320407Y-126431465D01*
X170318184Y-126428275D01*
X170205979Y-126260348D01*
X170205977Y-126260345D01*
X170059655Y-126114023D01*
X169887598Y-125999059D01*
X169887599Y-125999059D01*
X169887597Y-125999058D01*
X169696418Y-125919869D01*
X169493467Y-125879500D01*
X169493465Y-125879500D01*
X169286535Y-125879500D01*
X169286532Y-125879500D01*
X169083581Y-125919869D01*
X168892402Y-125999058D01*
X168720348Y-126114020D01*
X168574020Y-126260348D01*
X168459058Y-126432402D01*
X168379869Y-126623581D01*
X168339500Y-126826532D01*
X168339500Y-127033467D01*
X168379869Y-127236418D01*
X168459058Y-127427597D01*
X168459059Y-127427598D01*
X168574023Y-127599655D01*
X168720345Y-127745977D01*
X168892402Y-127860941D01*
X169083580Y-127940130D01*
X169286535Y-127980500D01*
X169286536Y-127980500D01*
X169493464Y-127980500D01*
X169493465Y-127980500D01*
X169696420Y-127940130D01*
X169887598Y-127860941D01*
X170059655Y-127745977D01*
X170205977Y-127599655D01*
X170318184Y-127431723D01*
X170366234Y-127393844D01*
X170427372Y-127391442D01*
X170478246Y-127425434D01*
X170499424Y-127482838D01*
X170499500Y-127486725D01*
X170499500Y-128913274D01*
X170480593Y-128971465D01*
X170431093Y-129007429D01*
X170369907Y-129007429D01*
X170320407Y-128971465D01*
X170318184Y-128968275D01*
X170205979Y-128800348D01*
X170205977Y-128800345D01*
X170059655Y-128654023D01*
X169887598Y-128539059D01*
X169887599Y-128539059D01*
X169887597Y-128539058D01*
X169696418Y-128459869D01*
X169493467Y-128419500D01*
X169493465Y-128419500D01*
X169286535Y-128419500D01*
X169286532Y-128419500D01*
X169083581Y-128459869D01*
X168892402Y-128539058D01*
X168720348Y-128654020D01*
X168574020Y-128800348D01*
X168459058Y-128972402D01*
X168379869Y-129163581D01*
X168339500Y-129366532D01*
X168339500Y-129573467D01*
X168379869Y-129776418D01*
X168459058Y-129967597D01*
X168459059Y-129967598D01*
X168574023Y-130139655D01*
X168720345Y-130285977D01*
X168892402Y-130400941D01*
X169083580Y-130480130D01*
X169286535Y-130520500D01*
X169286536Y-130520500D01*
X169493464Y-130520500D01*
X169493465Y-130520500D01*
X169696420Y-130480130D01*
X169887598Y-130400941D01*
X170059655Y-130285977D01*
X170205977Y-130139655D01*
X170318184Y-129971723D01*
X170366234Y-129933844D01*
X170427372Y-129931442D01*
X170478246Y-129965434D01*
X170499424Y-130022838D01*
X170499500Y-130026725D01*
X170499500Y-131453274D01*
X170480593Y-131511465D01*
X170431093Y-131547429D01*
X170369907Y-131547429D01*
X170320407Y-131511465D01*
X170318184Y-131508275D01*
X170205979Y-131340348D01*
X170205977Y-131340345D01*
X170059655Y-131194023D01*
X169887598Y-131079059D01*
X169887599Y-131079059D01*
X169887597Y-131079058D01*
X169696418Y-130999869D01*
X169493467Y-130959500D01*
X169493465Y-130959500D01*
X169286535Y-130959500D01*
X169286532Y-130959500D01*
X169083581Y-130999869D01*
X168892402Y-131079058D01*
X168720348Y-131194020D01*
X168574020Y-131340348D01*
X168459058Y-131512402D01*
X168379869Y-131703581D01*
X168339500Y-131906532D01*
X168339500Y-132113467D01*
X168379869Y-132316418D01*
X168459058Y-132507597D01*
X168459059Y-132507598D01*
X168574023Y-132679655D01*
X168720345Y-132825977D01*
X168892402Y-132940941D01*
X169083580Y-133020130D01*
X169286535Y-133060500D01*
X169286536Y-133060500D01*
X169493464Y-133060500D01*
X169493465Y-133060500D01*
X169696420Y-133020130D01*
X169887598Y-132940941D01*
X170059655Y-132825977D01*
X170205977Y-132679655D01*
X170318184Y-132511723D01*
X170366234Y-132473844D01*
X170427372Y-132471442D01*
X170478246Y-132505434D01*
X170499424Y-132562838D01*
X170499500Y-132566725D01*
X170499500Y-133835183D01*
X170480593Y-133893374D01*
X170431093Y-133929338D01*
X170392732Y-133933878D01*
X170362087Y-133931466D01*
X169872962Y-134420591D01*
X169855925Y-134357007D01*
X169790099Y-134242993D01*
X169697007Y-134149901D01*
X169582993Y-134084075D01*
X169519406Y-134067036D01*
X170008532Y-133577911D01*
X169992730Y-133566432D01*
X169831440Y-133484250D01*
X169659289Y-133428316D01*
X169480510Y-133400000D01*
X169299490Y-133400000D01*
X169120710Y-133428316D01*
X168948559Y-133484250D01*
X168787264Y-133566434D01*
X168771466Y-133577911D01*
X169260592Y-134067037D01*
X169197007Y-134084075D01*
X169082993Y-134149901D01*
X168989901Y-134242993D01*
X168924075Y-134357007D01*
X168907037Y-134420592D01*
X168417911Y-133931466D01*
X168406434Y-133947264D01*
X168324250Y-134108559D01*
X168268316Y-134280710D01*
X168240000Y-134459489D01*
X168240000Y-134640510D01*
X168268316Y-134819289D01*
X168324250Y-134991440D01*
X168406432Y-135152730D01*
X168417911Y-135168531D01*
X168907036Y-134679406D01*
X168924075Y-134742993D01*
X168989901Y-134857007D01*
X169082993Y-134950099D01*
X169197007Y-135015925D01*
X169260591Y-135032962D01*
X168771466Y-135522087D01*
X168787266Y-135533566D01*
X168948559Y-135615749D01*
X169120710Y-135671683D01*
X169299490Y-135700000D01*
X169480510Y-135700000D01*
X169659289Y-135671683D01*
X169831440Y-135615749D01*
X169992730Y-135533568D01*
X169992735Y-135533564D01*
X170008532Y-135522087D01*
X170008532Y-135522086D01*
X169519408Y-135032962D01*
X169582993Y-135015925D01*
X169697007Y-134950099D01*
X169790099Y-134857007D01*
X169855925Y-134742993D01*
X169872962Y-134679408D01*
X170362086Y-135168532D01*
X170392732Y-135166121D01*
X170452227Y-135180404D01*
X170491964Y-135226930D01*
X170499500Y-135264816D01*
X170499500Y-136533274D01*
X170480593Y-136591465D01*
X170431093Y-136627429D01*
X170369907Y-136627429D01*
X170320407Y-136591465D01*
X170318184Y-136588275D01*
X170205979Y-136420348D01*
X170205977Y-136420345D01*
X170059655Y-136274023D01*
X169887598Y-136159059D01*
X169887599Y-136159059D01*
X169887597Y-136159058D01*
X169696418Y-136079869D01*
X169493467Y-136039500D01*
X169493465Y-136039500D01*
X169286535Y-136039500D01*
X169286532Y-136039500D01*
X169083581Y-136079869D01*
X168892402Y-136159058D01*
X168720348Y-136274020D01*
X168574020Y-136420348D01*
X168459058Y-136592402D01*
X168379869Y-136783581D01*
X168339500Y-136986532D01*
X168339500Y-137193467D01*
X168379869Y-137396418D01*
X168459058Y-137587597D01*
X168459059Y-137587598D01*
X168574023Y-137759655D01*
X168720345Y-137905977D01*
X168892402Y-138020941D01*
X169083580Y-138100130D01*
X169286535Y-138140500D01*
X169286536Y-138140500D01*
X169493464Y-138140500D01*
X169493465Y-138140500D01*
X169696420Y-138100130D01*
X169887598Y-138020941D01*
X170059655Y-137905977D01*
X170205977Y-137759655D01*
X170318184Y-137591723D01*
X170366234Y-137553844D01*
X170427372Y-137551442D01*
X170478246Y-137585434D01*
X170499424Y-137642838D01*
X170499500Y-137646725D01*
X170499500Y-139073274D01*
X170480593Y-139131465D01*
X170431093Y-139167429D01*
X170369907Y-139167429D01*
X170320407Y-139131465D01*
X170318184Y-139128275D01*
X170205979Y-138960348D01*
X170205977Y-138960345D01*
X170059655Y-138814023D01*
X170059651Y-138814020D01*
X169887597Y-138699058D01*
X169696418Y-138619869D01*
X169493467Y-138579500D01*
X169493465Y-138579500D01*
X169286535Y-138579500D01*
X169286532Y-138579500D01*
X169083581Y-138619869D01*
X168892402Y-138699058D01*
X168720348Y-138814020D01*
X168574020Y-138960348D01*
X168459058Y-139132402D01*
X168379869Y-139323581D01*
X168339500Y-139526532D01*
X168339500Y-139733467D01*
X168379869Y-139936418D01*
X168459058Y-140127597D01*
X168511431Y-140205979D01*
X168574023Y-140299655D01*
X168604866Y-140330498D01*
X168632642Y-140385013D01*
X168623071Y-140445445D01*
X168579806Y-140488710D01*
X168534861Y-140499500D01*
X163596725Y-140499500D01*
X163538534Y-140480593D01*
X163502570Y-140431093D01*
X163502570Y-140369907D01*
X163538534Y-140320407D01*
X163541724Y-140318184D01*
X163629183Y-140259746D01*
X163709655Y-140205977D01*
X163855977Y-140059655D01*
X163970941Y-139887598D01*
X164050130Y-139696420D01*
X164090500Y-139493465D01*
X164090500Y-139286535D01*
X164050130Y-139083580D01*
X163970941Y-138892402D01*
X163855977Y-138720345D01*
X163709655Y-138574023D01*
X163698830Y-138566790D01*
X163537597Y-138459058D01*
X163346418Y-138379869D01*
X163143467Y-138339500D01*
X163143465Y-138339500D01*
X162936535Y-138339500D01*
X162936532Y-138339500D01*
X162733580Y-138379870D01*
X162733578Y-138379870D01*
X162597596Y-138436196D01*
X162570785Y-138438306D01*
X162544224Y-138442513D01*
X162540626Y-138440680D01*
X162536600Y-138440997D01*
X162489707Y-138414736D01*
X162430297Y-138355326D01*
X162402520Y-138300809D01*
X162401301Y-138285322D01*
X162401301Y-122615279D01*
X162408456Y-122593255D01*
X162412066Y-122570383D01*
X162417730Y-122564711D01*
X162420208Y-122557088D01*
X162438945Y-122543474D01*
X162455307Y-122527095D01*
X162463221Y-122525836D01*
X162469708Y-122521124D01*
X162492867Y-122521124D01*
X162515733Y-122517489D01*
X162522872Y-122521124D01*
X162530894Y-122521124D01*
X162570265Y-122545236D01*
X162615489Y-122590460D01*
X162615608Y-122590528D01*
X162620313Y-122595228D01*
X162620316Y-122595235D01*
X162620353Y-122595267D01*
X163820504Y-123795418D01*
X163848281Y-123849935D01*
X163849500Y-123865422D01*
X163849500Y-124701679D01*
X163830593Y-124759870D01*
X163820509Y-124771676D01*
X163749500Y-124842686D01*
X163749497Y-124842689D01*
X163749496Y-124842690D01*
X163683609Y-124956809D01*
X163683608Y-124956814D01*
X163649500Y-125084108D01*
X163649500Y-125215892D01*
X163677648Y-125320941D01*
X163683609Y-125343190D01*
X163749496Y-125457309D01*
X163749498Y-125457311D01*
X163749500Y-125457314D01*
X163842686Y-125550500D01*
X163842688Y-125550501D01*
X163842690Y-125550503D01*
X163956810Y-125616390D01*
X163956808Y-125616390D01*
X163956812Y-125616391D01*
X163956814Y-125616392D01*
X164084108Y-125650500D01*
X164084110Y-125650500D01*
X164215890Y-125650500D01*
X164215892Y-125650500D01*
X164343186Y-125616392D01*
X164343188Y-125616390D01*
X164343190Y-125616390D01*
X164457309Y-125550503D01*
X164457309Y-125550502D01*
X164457314Y-125550500D01*
X164550500Y-125457314D01*
X164616392Y-125343186D01*
X164650500Y-125215892D01*
X164650500Y-125084108D01*
X164616392Y-124956814D01*
X164616390Y-124956811D01*
X164616390Y-124956809D01*
X164550503Y-124842690D01*
X164550501Y-124842688D01*
X164550500Y-124842686D01*
X164479494Y-124771680D01*
X164451719Y-124717166D01*
X164450500Y-124701679D01*
X164450500Y-123660382D01*
X164450499Y-123660378D01*
X164444905Y-123639499D01*
X164444905Y-123639500D01*
X164430022Y-123583955D01*
X164430020Y-123583952D01*
X164430020Y-123583950D01*
X164390463Y-123515436D01*
X164390461Y-123515434D01*
X164390460Y-123515432D01*
X163022529Y-122147501D01*
X162994754Y-122092987D01*
X163004325Y-122032555D01*
X163047590Y-121989290D01*
X163092535Y-121978500D01*
X168039563Y-121978500D01*
X168039563Y-121978499D01*
X168115989Y-121958021D01*
X168115991Y-121958019D01*
X168118947Y-121956796D01*
X168121233Y-121956616D01*
X168122256Y-121956342D01*
X168122306Y-121956531D01*
X168179943Y-121951995D01*
X168232112Y-121983965D01*
G37*
%TD.AperFunction*%
%TA.AperFunction,Conductor*%
G36*
X170478246Y-119805434D02*
G01*
X170499424Y-119862838D01*
X170499500Y-119866725D01*
X170499500Y-121135183D01*
X170480593Y-121193374D01*
X170431093Y-121229338D01*
X170392732Y-121233878D01*
X170362087Y-121231466D01*
X169872962Y-121720591D01*
X169855925Y-121657007D01*
X169790099Y-121542993D01*
X169697007Y-121449901D01*
X169582993Y-121384075D01*
X169519408Y-121367037D01*
X170008532Y-120877912D01*
X169992730Y-120866432D01*
X169831440Y-120784250D01*
X169659289Y-120728316D01*
X169480510Y-120700000D01*
X169299490Y-120700000D01*
X169120710Y-120728316D01*
X168948559Y-120784250D01*
X168787269Y-120866431D01*
X168787265Y-120866434D01*
X168696690Y-120932240D01*
X168638499Y-120951147D01*
X168580309Y-120932239D01*
X168544345Y-120882739D01*
X168539500Y-120852147D01*
X168539500Y-120184139D01*
X168558407Y-120125948D01*
X168607907Y-120089984D01*
X168669093Y-120089984D01*
X168708501Y-120114133D01*
X168720345Y-120125977D01*
X168892402Y-120240941D01*
X169083580Y-120320130D01*
X169286535Y-120360500D01*
X169286536Y-120360500D01*
X169493464Y-120360500D01*
X169493465Y-120360500D01*
X169696420Y-120320130D01*
X169887598Y-120240941D01*
X170059655Y-120125977D01*
X170205977Y-119979655D01*
X170318184Y-119811723D01*
X170366234Y-119773844D01*
X170427372Y-119771442D01*
X170478246Y-119805434D01*
G37*
%TD.AperFunction*%
%TA.AperFunction,Conductor*%
G36*
X170478246Y-94405434D02*
G01*
X170499424Y-94462838D01*
X170499500Y-94466725D01*
X170499500Y-95735183D01*
X170480593Y-95793374D01*
X170431093Y-95829338D01*
X170392732Y-95833878D01*
X170362087Y-95831466D01*
X169872962Y-96320591D01*
X169855925Y-96257007D01*
X169790099Y-96142993D01*
X169697007Y-96049901D01*
X169582993Y-95984075D01*
X169519406Y-95967036D01*
X170008532Y-95477911D01*
X169992730Y-95466432D01*
X169831440Y-95384250D01*
X169659289Y-95328316D01*
X169480510Y-95300000D01*
X169299490Y-95300000D01*
X169120710Y-95328316D01*
X168948559Y-95384250D01*
X168787264Y-95466434D01*
X168771466Y-95477911D01*
X169260592Y-95967037D01*
X169197007Y-95984075D01*
X169082993Y-96049901D01*
X168989901Y-96142993D01*
X168924075Y-96257007D01*
X168907037Y-96320592D01*
X168417911Y-95831466D01*
X168406434Y-95847264D01*
X168324250Y-96008559D01*
X168268316Y-96180710D01*
X168240000Y-96359489D01*
X168240000Y-96540510D01*
X168268316Y-96719289D01*
X168324250Y-96891440D01*
X168406432Y-97052730D01*
X168417911Y-97068531D01*
X168907036Y-96579406D01*
X168924075Y-96642993D01*
X168989901Y-96757007D01*
X169082993Y-96850099D01*
X169197007Y-96915925D01*
X169260591Y-96932962D01*
X168771466Y-97422087D01*
X168787266Y-97433566D01*
X168948559Y-97515749D01*
X169120710Y-97571683D01*
X169299490Y-97600000D01*
X169480510Y-97600000D01*
X169659289Y-97571683D01*
X169831440Y-97515749D01*
X169992730Y-97433568D01*
X169992735Y-97433564D01*
X170008532Y-97422087D01*
X170008532Y-97422086D01*
X169519408Y-96932962D01*
X169582993Y-96915925D01*
X169697007Y-96850099D01*
X169790099Y-96757007D01*
X169855925Y-96642993D01*
X169872962Y-96579408D01*
X170362086Y-97068532D01*
X170392732Y-97066121D01*
X170452227Y-97080404D01*
X170491964Y-97126930D01*
X170499500Y-97164816D01*
X170499500Y-98433274D01*
X170480593Y-98491465D01*
X170431093Y-98527429D01*
X170369907Y-98527429D01*
X170320407Y-98491465D01*
X170318184Y-98488275D01*
X170205979Y-98320348D01*
X170205977Y-98320345D01*
X170059655Y-98174023D01*
X169887598Y-98059059D01*
X169887599Y-98059059D01*
X169887597Y-98059058D01*
X169696418Y-97979869D01*
X169493467Y-97939500D01*
X169493465Y-97939500D01*
X169286535Y-97939500D01*
X169286532Y-97939500D01*
X169083581Y-97979869D01*
X168892402Y-98059058D01*
X168720348Y-98174020D01*
X168574020Y-98320348D01*
X168459058Y-98492402D01*
X168379869Y-98683581D01*
X168339500Y-98886532D01*
X168339500Y-99093467D01*
X168379869Y-99296418D01*
X168436196Y-99432402D01*
X168440997Y-99493399D01*
X168414736Y-99540292D01*
X167469504Y-100485524D01*
X167414987Y-100513301D01*
X167354555Y-100503730D01*
X167311290Y-100460465D01*
X167300500Y-100415520D01*
X167300500Y-96465478D01*
X167302968Y-96457880D01*
X167301719Y-96449991D01*
X167312243Y-96429335D01*
X167319407Y-96407287D01*
X167329490Y-96395480D01*
X168839708Y-94885261D01*
X168894223Y-94857486D01*
X168947595Y-94863802D01*
X169083580Y-94920130D01*
X169286535Y-94960500D01*
X169286536Y-94960500D01*
X169493464Y-94960500D01*
X169493465Y-94960500D01*
X169696420Y-94920130D01*
X169887598Y-94840941D01*
X170059655Y-94725977D01*
X170205977Y-94579655D01*
X170318184Y-94411723D01*
X170366234Y-94373844D01*
X170427372Y-94371442D01*
X170478246Y-94405434D01*
G37*
%TD.AperFunction*%
%TA.AperFunction,Conductor*%
G36*
X150679593Y-94408534D02*
G01*
X150681816Y-94411724D01*
X150783375Y-94563720D01*
X150794023Y-94579655D01*
X150940345Y-94725977D01*
X151112402Y-94840941D01*
X151303580Y-94920130D01*
X151506535Y-94960500D01*
X151506536Y-94960500D01*
X151713464Y-94960500D01*
X151713465Y-94960500D01*
X151916420Y-94920130D01*
X152052405Y-94863802D01*
X152113399Y-94859002D01*
X152160292Y-94885263D01*
X153669504Y-96394475D01*
X153697281Y-96448992D01*
X153698500Y-96464479D01*
X153698500Y-100414521D01*
X153679593Y-100472712D01*
X153630093Y-100508676D01*
X153568907Y-100508676D01*
X153529496Y-100484525D01*
X152585263Y-99540292D01*
X152557486Y-99485775D01*
X152563802Y-99432405D01*
X152620130Y-99296420D01*
X152660500Y-99093465D01*
X152660500Y-98886535D01*
X152620130Y-98683580D01*
X152540941Y-98492402D01*
X152425977Y-98320345D01*
X152279655Y-98174023D01*
X152107598Y-98059059D01*
X152107599Y-98059059D01*
X152107597Y-98059058D01*
X151916418Y-97979869D01*
X151713467Y-97939500D01*
X151713465Y-97939500D01*
X151506535Y-97939500D01*
X151506532Y-97939500D01*
X151303581Y-97979869D01*
X151112402Y-98059058D01*
X150940348Y-98174020D01*
X150794020Y-98320348D01*
X150681816Y-98488275D01*
X150633766Y-98526155D01*
X150572628Y-98528557D01*
X150521754Y-98494564D01*
X150500576Y-98437161D01*
X150500500Y-98433274D01*
X150500500Y-97164815D01*
X150519407Y-97106624D01*
X150568907Y-97070660D01*
X150607269Y-97066120D01*
X150637911Y-97068532D01*
X151127036Y-96579406D01*
X151144075Y-96642993D01*
X151209901Y-96757007D01*
X151302993Y-96850099D01*
X151417007Y-96915925D01*
X151480591Y-96932962D01*
X150991466Y-97422087D01*
X151007266Y-97433566D01*
X151168559Y-97515749D01*
X151340710Y-97571683D01*
X151519490Y-97600000D01*
X151700510Y-97600000D01*
X151879289Y-97571683D01*
X152051440Y-97515749D01*
X152212730Y-97433568D01*
X152212735Y-97433564D01*
X152228532Y-97422087D01*
X152228532Y-97422086D01*
X151739408Y-96932962D01*
X151802993Y-96915925D01*
X151917007Y-96850099D01*
X152010099Y-96757007D01*
X152075925Y-96642993D01*
X152092962Y-96579408D01*
X152582086Y-97068532D01*
X152582087Y-97068532D01*
X152593564Y-97052735D01*
X152593568Y-97052730D01*
X152675749Y-96891440D01*
X152731683Y-96719289D01*
X152760000Y-96540510D01*
X152760000Y-96359489D01*
X152731683Y-96180710D01*
X152675749Y-96008559D01*
X152593566Y-95847266D01*
X152582087Y-95831466D01*
X152092962Y-96320591D01*
X152075925Y-96257007D01*
X152010099Y-96142993D01*
X151917007Y-96049901D01*
X151802993Y-95984075D01*
X151739406Y-95967036D01*
X152228532Y-95477911D01*
X152212730Y-95466432D01*
X152051440Y-95384250D01*
X151879289Y-95328316D01*
X151700510Y-95300000D01*
X151519490Y-95300000D01*
X151340710Y-95328316D01*
X151168559Y-95384250D01*
X151007264Y-95466434D01*
X150991466Y-95477911D01*
X151480592Y-95967037D01*
X151417007Y-95984075D01*
X151302993Y-96049901D01*
X151209901Y-96142993D01*
X151144075Y-96257007D01*
X151127037Y-96320592D01*
X150637911Y-95831466D01*
X150607271Y-95833879D01*
X150547775Y-95819597D01*
X150508037Y-95773073D01*
X150500500Y-95735184D01*
X150500500Y-94466725D01*
X150519407Y-94408534D01*
X150568907Y-94372570D01*
X150630093Y-94372570D01*
X150679593Y-94408534D01*
G37*
%TD.AperFunction*%
%TD*%
%TA.AperFunction,NonConductor*%
G36*
X150612524Y-92378807D02*
G01*
X150630093Y-92378807D01*
X150654496Y-92390643D01*
X150681769Y-92408867D01*
X150726231Y-92417711D01*
X150740241Y-92420498D01*
X150740246Y-92420498D01*
X150740252Y-92420500D01*
X152194521Y-92420500D01*
X152252712Y-92439407D01*
X152264525Y-92449496D01*
X154070504Y-94255475D01*
X154098281Y-94309992D01*
X154099500Y-94325479D01*
X154099500Y-95735521D01*
X154080593Y-95793712D01*
X154031093Y-95829676D01*
X153969907Y-95829676D01*
X153930496Y-95805525D01*
X152585263Y-94460292D01*
X152557486Y-94405775D01*
X152563802Y-94352405D01*
X152620130Y-94216420D01*
X152660500Y-94013465D01*
X152660500Y-93806535D01*
X152620130Y-93603580D01*
X152540941Y-93412402D01*
X152425977Y-93240345D01*
X152279655Y-93094023D01*
X152107598Y-92979059D01*
X152107599Y-92979059D01*
X152107597Y-92979058D01*
X151916418Y-92899869D01*
X151713467Y-92859500D01*
X151713465Y-92859500D01*
X151506535Y-92859500D01*
X151506532Y-92859500D01*
X151303581Y-92899869D01*
X151112402Y-92979058D01*
X150940348Y-93094020D01*
X150794020Y-93240348D01*
X150681816Y-93408275D01*
X150633766Y-93446155D01*
X150572628Y-93448557D01*
X150521754Y-93414564D01*
X150500576Y-93357161D01*
X150500500Y-93353274D01*
X150500500Y-92472962D01*
X150504757Y-92459857D01*
X150504217Y-92446088D01*
X150513977Y-92431480D01*
X150519407Y-92414771D01*
X150530556Y-92406670D01*
X150538211Y-92395215D01*
X150554691Y-92389135D01*
X150568907Y-92378807D01*
X150582688Y-92378807D01*
X150595615Y-92374038D01*
X150612524Y-92378807D01*
G37*
%TD.AperFunction*%
%TA.AperFunction,NonConductor*%
G36*
X170478246Y-117265434D02*
G01*
X170499424Y-117322838D01*
X170499500Y-117326725D01*
X170499500Y-118753274D01*
X170480593Y-118811465D01*
X170431093Y-118847429D01*
X170369907Y-118847429D01*
X170320407Y-118811465D01*
X170318184Y-118808275D01*
X170205979Y-118640348D01*
X170205977Y-118640345D01*
X170059655Y-118494023D01*
X170059651Y-118494020D01*
X169887597Y-118379058D01*
X169696418Y-118299869D01*
X169493467Y-118259500D01*
X169493465Y-118259500D01*
X169286535Y-118259500D01*
X169286532Y-118259500D01*
X169083581Y-118299869D01*
X168892402Y-118379058D01*
X168720344Y-118494023D01*
X168708501Y-118505866D01*
X168653984Y-118533642D01*
X168593552Y-118524068D01*
X168550289Y-118480802D01*
X168539500Y-118435860D01*
X168539500Y-118086477D01*
X168558407Y-118028286D01*
X168568490Y-118016480D01*
X168839708Y-117745261D01*
X168894223Y-117717485D01*
X168947591Y-117723801D01*
X169083580Y-117780130D01*
X169286535Y-117820500D01*
X169286536Y-117820500D01*
X169493464Y-117820500D01*
X169493465Y-117820500D01*
X169696420Y-117780130D01*
X169887598Y-117700941D01*
X170059655Y-117585977D01*
X170205977Y-117439655D01*
X170318184Y-117271723D01*
X170366234Y-117233844D01*
X170427372Y-117231442D01*
X170478246Y-117265434D01*
G37*
%TD.AperFunction*%
%TA.AperFunction,NonConductor*%
G36*
X170478246Y-140125434D02*
G01*
X170499424Y-140182838D01*
X170499500Y-140186725D01*
X170499500Y-140400500D01*
X170480593Y-140458691D01*
X170431093Y-140494655D01*
X170400500Y-140499500D01*
X170245139Y-140499500D01*
X170186948Y-140480593D01*
X170150984Y-140431093D01*
X170150984Y-140369907D01*
X170175133Y-140330498D01*
X170205977Y-140299655D01*
X170318184Y-140131723D01*
X170366234Y-140093844D01*
X170427372Y-140091442D01*
X170478246Y-140125434D01*
G37*
%TD.AperFunction*%
%TA.AperFunction,NonConductor*%
G36*
X150679593Y-140128534D02*
G01*
X150681813Y-140131720D01*
X150794023Y-140299655D01*
X150824866Y-140330498D01*
X150852642Y-140385013D01*
X150843071Y-140445445D01*
X150799806Y-140488710D01*
X150754861Y-140499500D01*
X150599500Y-140499500D01*
X150541309Y-140480593D01*
X150505345Y-140431093D01*
X150500500Y-140400500D01*
X150500500Y-140186725D01*
X150519407Y-140128534D01*
X150568907Y-140092570D01*
X150630093Y-140092570D01*
X150679593Y-140128534D01*
G37*
%TD.AperFunction*%
M02*
