%TF.GenerationSoftware,KiCad,Pcbnew,9.0.6*%
%TF.CreationDate,2025-12-19T19:37:15+11:00*%
%TF.ProjectId,Devboard,44657662-6f61-4726-942e-6b696361645f,rev?*%
%TF.SameCoordinates,Original*%
%TF.FileFunction,Legend,Top*%
%TF.FilePolarity,Positive*%
%FSLAX46Y46*%
G04 Gerber Fmt 4.6, Leading zero omitted, Abs format (unit mm)*
G04 Created by KiCad (PCBNEW 9.0.6) date 2025-12-19 19:37:15*
%MOMM*%
%LPD*%
G01*
G04 APERTURE LIST*
%ADD10C,0.100000*%
%ADD11C,0.150000*%
%ADD12C,0.120000*%
G04 APERTURE END LIST*
D10*
X155309523Y-132976760D02*
X155785713Y-132976760D01*
X155214285Y-133262475D02*
X155547618Y-132262475D01*
X155547618Y-132262475D02*
X155880951Y-133262475D01*
X156214285Y-133262475D02*
X156214285Y-132595808D01*
X156214285Y-132786284D02*
X156261904Y-132691046D01*
X156261904Y-132691046D02*
X156309523Y-132643427D01*
X156309523Y-132643427D02*
X156404761Y-132595808D01*
X156404761Y-132595808D02*
X156499999Y-132595808D01*
X156738095Y-132595808D02*
X156928571Y-133262475D01*
X156928571Y-133262475D02*
X157119047Y-132786284D01*
X157119047Y-132786284D02*
X157309523Y-133262475D01*
X157309523Y-133262475D02*
X157499999Y-132595808D01*
X157880952Y-133262475D02*
X157880952Y-132595808D01*
X157880952Y-132262475D02*
X157833333Y-132310094D01*
X157833333Y-132310094D02*
X157880952Y-132357713D01*
X157880952Y-132357713D02*
X157928571Y-132310094D01*
X157928571Y-132310094D02*
X157880952Y-132262475D01*
X157880952Y-132262475D02*
X157880952Y-132357713D01*
X158357142Y-132595808D02*
X158357142Y-133262475D01*
X158357142Y-132691046D02*
X158404761Y-132643427D01*
X158404761Y-132643427D02*
X158499999Y-132595808D01*
X158499999Y-132595808D02*
X158642856Y-132595808D01*
X158642856Y-132595808D02*
X158738094Y-132643427D01*
X158738094Y-132643427D02*
X158785713Y-132738665D01*
X158785713Y-132738665D02*
X158785713Y-133262475D01*
X159976190Y-133214856D02*
X160119047Y-133262475D01*
X160119047Y-133262475D02*
X160357142Y-133262475D01*
X160357142Y-133262475D02*
X160452380Y-133214856D01*
X160452380Y-133214856D02*
X160499999Y-133167236D01*
X160499999Y-133167236D02*
X160547618Y-133071998D01*
X160547618Y-133071998D02*
X160547618Y-132976760D01*
X160547618Y-132976760D02*
X160499999Y-132881522D01*
X160499999Y-132881522D02*
X160452380Y-132833903D01*
X160452380Y-132833903D02*
X160357142Y-132786284D01*
X160357142Y-132786284D02*
X160166666Y-132738665D01*
X160166666Y-132738665D02*
X160071428Y-132691046D01*
X160071428Y-132691046D02*
X160023809Y-132643427D01*
X160023809Y-132643427D02*
X159976190Y-132548189D01*
X159976190Y-132548189D02*
X159976190Y-132452951D01*
X159976190Y-132452951D02*
X160023809Y-132357713D01*
X160023809Y-132357713D02*
X160071428Y-132310094D01*
X160071428Y-132310094D02*
X160166666Y-132262475D01*
X160166666Y-132262475D02*
X160404761Y-132262475D01*
X160404761Y-132262475D02*
X160547618Y-132310094D01*
X160976190Y-133262475D02*
X160976190Y-132595808D01*
X160976190Y-132262475D02*
X160928571Y-132310094D01*
X160928571Y-132310094D02*
X160976190Y-132357713D01*
X160976190Y-132357713D02*
X161023809Y-132310094D01*
X161023809Y-132310094D02*
X160976190Y-132262475D01*
X160976190Y-132262475D02*
X160976190Y-132357713D01*
X161595237Y-133262475D02*
X161499999Y-133214856D01*
X161499999Y-133214856D02*
X161452380Y-133119617D01*
X161452380Y-133119617D02*
X161452380Y-132262475D01*
X161976190Y-132595808D02*
X161976190Y-133595808D01*
X161976190Y-132643427D02*
X162071428Y-132595808D01*
X162071428Y-132595808D02*
X162261904Y-132595808D01*
X162261904Y-132595808D02*
X162357142Y-132643427D01*
X162357142Y-132643427D02*
X162404761Y-132691046D01*
X162404761Y-132691046D02*
X162452380Y-132786284D01*
X162452380Y-132786284D02*
X162452380Y-133071998D01*
X162452380Y-133071998D02*
X162404761Y-133167236D01*
X162404761Y-133167236D02*
X162357142Y-133214856D01*
X162357142Y-133214856D02*
X162261904Y-133262475D01*
X162261904Y-133262475D02*
X162071428Y-133262475D01*
X162071428Y-133262475D02*
X161976190Y-133214856D01*
X163309523Y-133262475D02*
X163309523Y-132738665D01*
X163309523Y-132738665D02*
X163261904Y-132643427D01*
X163261904Y-132643427D02*
X163166666Y-132595808D01*
X163166666Y-132595808D02*
X162976190Y-132595808D01*
X162976190Y-132595808D02*
X162880952Y-132643427D01*
X163309523Y-133214856D02*
X163214285Y-133262475D01*
X163214285Y-133262475D02*
X162976190Y-133262475D01*
X162976190Y-133262475D02*
X162880952Y-133214856D01*
X162880952Y-133214856D02*
X162833333Y-133119617D01*
X162833333Y-133119617D02*
X162833333Y-133024379D01*
X162833333Y-133024379D02*
X162880952Y-132929141D01*
X162880952Y-132929141D02*
X162976190Y-132881522D01*
X162976190Y-132881522D02*
X163214285Y-132881522D01*
X163214285Y-132881522D02*
X163309523Y-132833903D01*
X163785714Y-133262475D02*
X163785714Y-132262475D01*
X163880952Y-132881522D02*
X164166666Y-133262475D01*
X164166666Y-132595808D02*
X163785714Y-132976760D01*
X165023809Y-133262475D02*
X165023809Y-132738665D01*
X165023809Y-132738665D02*
X164976190Y-132643427D01*
X164976190Y-132643427D02*
X164880952Y-132595808D01*
X164880952Y-132595808D02*
X164690476Y-132595808D01*
X164690476Y-132595808D02*
X164595238Y-132643427D01*
X165023809Y-133214856D02*
X164928571Y-133262475D01*
X164928571Y-133262475D02*
X164690476Y-133262475D01*
X164690476Y-133262475D02*
X164595238Y-133214856D01*
X164595238Y-133214856D02*
X164547619Y-133119617D01*
X164547619Y-133119617D02*
X164547619Y-133024379D01*
X164547619Y-133024379D02*
X164595238Y-132929141D01*
X164595238Y-132929141D02*
X164690476Y-132881522D01*
X164690476Y-132881522D02*
X164928571Y-132881522D01*
X164928571Y-132881522D02*
X165023809Y-132833903D01*
X165500000Y-133262475D02*
X165500000Y-132595808D01*
X165500000Y-132786284D02*
X165547619Y-132691046D01*
X165547619Y-132691046D02*
X165595238Y-132643427D01*
X165595238Y-132643427D02*
X165690476Y-132595808D01*
X165690476Y-132595808D02*
X165785714Y-132595808D01*
X156785713Y-134396228D02*
X156738094Y-134348609D01*
X156738094Y-134348609D02*
X156642856Y-134300990D01*
X156642856Y-134300990D02*
X156547618Y-134300990D01*
X156547618Y-134300990D02*
X156452380Y-134348609D01*
X156452380Y-134348609D02*
X156404761Y-134396228D01*
X156404761Y-134396228D02*
X156357142Y-134491466D01*
X156357142Y-134491466D02*
X156357142Y-134586704D01*
X156357142Y-134586704D02*
X156404761Y-134681942D01*
X156404761Y-134681942D02*
X156452380Y-134729561D01*
X156452380Y-134729561D02*
X156547618Y-134777180D01*
X156547618Y-134777180D02*
X156642856Y-134777180D01*
X156642856Y-134777180D02*
X156738094Y-134729561D01*
X156738094Y-134729561D02*
X156785713Y-134681942D01*
X156785713Y-134300990D02*
X156785713Y-134681942D01*
X156785713Y-134681942D02*
X156833332Y-134729561D01*
X156833332Y-134729561D02*
X156880951Y-134729561D01*
X156880951Y-134729561D02*
X156976190Y-134681942D01*
X156976190Y-134681942D02*
X157023809Y-134586704D01*
X157023809Y-134586704D02*
X157023809Y-134348609D01*
X157023809Y-134348609D02*
X156928571Y-134205752D01*
X156928571Y-134205752D02*
X156785713Y-134110514D01*
X156785713Y-134110514D02*
X156595237Y-134062895D01*
X156595237Y-134062895D02*
X156404761Y-134110514D01*
X156404761Y-134110514D02*
X156261904Y-134205752D01*
X156261904Y-134205752D02*
X156166666Y-134348609D01*
X156166666Y-134348609D02*
X156119047Y-134539085D01*
X156119047Y-134539085D02*
X156166666Y-134729561D01*
X156166666Y-134729561D02*
X156261904Y-134872419D01*
X156261904Y-134872419D02*
X156404761Y-134967657D01*
X156404761Y-134967657D02*
X156595237Y-135015276D01*
X156595237Y-135015276D02*
X156785713Y-134967657D01*
X156785713Y-134967657D02*
X156928571Y-134872419D01*
X157880951Y-134872419D02*
X157880951Y-134348609D01*
X157880951Y-134348609D02*
X157833332Y-134253371D01*
X157833332Y-134253371D02*
X157738094Y-134205752D01*
X157738094Y-134205752D02*
X157547618Y-134205752D01*
X157547618Y-134205752D02*
X157452380Y-134253371D01*
X157880951Y-134824800D02*
X157785713Y-134872419D01*
X157785713Y-134872419D02*
X157547618Y-134872419D01*
X157547618Y-134872419D02*
X157452380Y-134824800D01*
X157452380Y-134824800D02*
X157404761Y-134729561D01*
X157404761Y-134729561D02*
X157404761Y-134634323D01*
X157404761Y-134634323D02*
X157452380Y-134539085D01*
X157452380Y-134539085D02*
X157547618Y-134491466D01*
X157547618Y-134491466D02*
X157785713Y-134491466D01*
X157785713Y-134491466D02*
X157880951Y-134443847D01*
X158357142Y-134872419D02*
X158357142Y-134205752D01*
X158357142Y-134396228D02*
X158404761Y-134300990D01*
X158404761Y-134300990D02*
X158452380Y-134253371D01*
X158452380Y-134253371D02*
X158547618Y-134205752D01*
X158547618Y-134205752D02*
X158642856Y-134205752D01*
X158880952Y-134205752D02*
X159071428Y-134872419D01*
X159071428Y-134872419D02*
X159261904Y-134396228D01*
X159261904Y-134396228D02*
X159452380Y-134872419D01*
X159452380Y-134872419D02*
X159642856Y-134205752D01*
X160023809Y-134872419D02*
X160023809Y-134205752D01*
X160023809Y-133872419D02*
X159976190Y-133920038D01*
X159976190Y-133920038D02*
X160023809Y-133967657D01*
X160023809Y-133967657D02*
X160071428Y-133920038D01*
X160071428Y-133920038D02*
X160023809Y-133872419D01*
X160023809Y-133872419D02*
X160023809Y-133967657D01*
X160499999Y-134205752D02*
X160499999Y-134872419D01*
X160499999Y-134300990D02*
X160547618Y-134253371D01*
X160547618Y-134253371D02*
X160642856Y-134205752D01*
X160642856Y-134205752D02*
X160785713Y-134205752D01*
X160785713Y-134205752D02*
X160880951Y-134253371D01*
X160880951Y-134253371D02*
X160928570Y-134348609D01*
X160928570Y-134348609D02*
X160928570Y-134872419D01*
X161404761Y-134205752D02*
X161404761Y-135205752D01*
X161404761Y-134253371D02*
X161499999Y-134205752D01*
X161499999Y-134205752D02*
X161690475Y-134205752D01*
X161690475Y-134205752D02*
X161785713Y-134253371D01*
X161785713Y-134253371D02*
X161833332Y-134300990D01*
X161833332Y-134300990D02*
X161880951Y-134396228D01*
X161880951Y-134396228D02*
X161880951Y-134681942D01*
X161880951Y-134681942D02*
X161833332Y-134777180D01*
X161833332Y-134777180D02*
X161785713Y-134824800D01*
X161785713Y-134824800D02*
X161690475Y-134872419D01*
X161690475Y-134872419D02*
X161499999Y-134872419D01*
X161499999Y-134872419D02*
X161404761Y-134824800D01*
X162452380Y-134872419D02*
X162357142Y-134824800D01*
X162357142Y-134824800D02*
X162309523Y-134729561D01*
X162309523Y-134729561D02*
X162309523Y-133872419D01*
X163261904Y-134872419D02*
X163261904Y-134348609D01*
X163261904Y-134348609D02*
X163214285Y-134253371D01*
X163214285Y-134253371D02*
X163119047Y-134205752D01*
X163119047Y-134205752D02*
X162928571Y-134205752D01*
X162928571Y-134205752D02*
X162833333Y-134253371D01*
X163261904Y-134824800D02*
X163166666Y-134872419D01*
X163166666Y-134872419D02*
X162928571Y-134872419D01*
X162928571Y-134872419D02*
X162833333Y-134824800D01*
X162833333Y-134824800D02*
X162785714Y-134729561D01*
X162785714Y-134729561D02*
X162785714Y-134634323D01*
X162785714Y-134634323D02*
X162833333Y-134539085D01*
X162833333Y-134539085D02*
X162928571Y-134491466D01*
X162928571Y-134491466D02*
X163166666Y-134491466D01*
X163166666Y-134491466D02*
X163261904Y-134443847D01*
X163642857Y-134205752D02*
X163880952Y-134872419D01*
X164119047Y-134205752D02*
X163880952Y-134872419D01*
X163880952Y-134872419D02*
X163785714Y-135110514D01*
X163785714Y-135110514D02*
X163738095Y-135158133D01*
X163738095Y-135158133D02*
X163642857Y-135205752D01*
X164404762Y-134205752D02*
X164928571Y-134205752D01*
X164928571Y-134205752D02*
X164404762Y-134872419D01*
X164404762Y-134872419D02*
X164928571Y-134872419D01*
D11*
X162507200Y-102533332D02*
X162554819Y-102390475D01*
X162554819Y-102390475D02*
X162554819Y-102152380D01*
X162554819Y-102152380D02*
X162507200Y-102057142D01*
X162507200Y-102057142D02*
X162459580Y-102009523D01*
X162459580Y-102009523D02*
X162364342Y-101961904D01*
X162364342Y-101961904D02*
X162269104Y-101961904D01*
X162269104Y-101961904D02*
X162173866Y-102009523D01*
X162173866Y-102009523D02*
X162126247Y-102057142D01*
X162126247Y-102057142D02*
X162078628Y-102152380D01*
X162078628Y-102152380D02*
X162031009Y-102342856D01*
X162031009Y-102342856D02*
X161983390Y-102438094D01*
X161983390Y-102438094D02*
X161935771Y-102485713D01*
X161935771Y-102485713D02*
X161840533Y-102533332D01*
X161840533Y-102533332D02*
X161745295Y-102533332D01*
X161745295Y-102533332D02*
X161650057Y-102485713D01*
X161650057Y-102485713D02*
X161602438Y-102438094D01*
X161602438Y-102438094D02*
X161554819Y-102342856D01*
X161554819Y-102342856D02*
X161554819Y-102104761D01*
X161554819Y-102104761D02*
X161602438Y-101961904D01*
X161554819Y-101628570D02*
X162554819Y-101390475D01*
X162554819Y-101390475D02*
X161840533Y-101199999D01*
X161840533Y-101199999D02*
X162554819Y-101009523D01*
X162554819Y-101009523D02*
X161554819Y-100771428D01*
X162554819Y-99866666D02*
X162554819Y-100438094D01*
X162554819Y-100152380D02*
X161554819Y-100152380D01*
X161554819Y-100152380D02*
X161697676Y-100247618D01*
X161697676Y-100247618D02*
X161792914Y-100342856D01*
X161792914Y-100342856D02*
X161840533Y-100438094D01*
X154654819Y-102074404D02*
X155464342Y-102074404D01*
X155464342Y-102074404D02*
X155559580Y-102026785D01*
X155559580Y-102026785D02*
X155607200Y-101979166D01*
X155607200Y-101979166D02*
X155654819Y-101883928D01*
X155654819Y-101883928D02*
X155654819Y-101693452D01*
X155654819Y-101693452D02*
X155607200Y-101598214D01*
X155607200Y-101598214D02*
X155559580Y-101550595D01*
X155559580Y-101550595D02*
X155464342Y-101502976D01*
X155464342Y-101502976D02*
X154654819Y-101502976D01*
X154750057Y-101074404D02*
X154702438Y-101026785D01*
X154702438Y-101026785D02*
X154654819Y-100931547D01*
X154654819Y-100931547D02*
X154654819Y-100693452D01*
X154654819Y-100693452D02*
X154702438Y-100598214D01*
X154702438Y-100598214D02*
X154750057Y-100550595D01*
X154750057Y-100550595D02*
X154845295Y-100502976D01*
X154845295Y-100502976D02*
X154940533Y-100502976D01*
X154940533Y-100502976D02*
X155083390Y-100550595D01*
X155083390Y-100550595D02*
X155654819Y-101122023D01*
X155654819Y-101122023D02*
X155654819Y-100502976D01*
X160166666Y-98054819D02*
X160166666Y-98769104D01*
X160166666Y-98769104D02*
X160119047Y-98911961D01*
X160119047Y-98911961D02*
X160023809Y-99007200D01*
X160023809Y-99007200D02*
X159880952Y-99054819D01*
X159880952Y-99054819D02*
X159785714Y-99054819D01*
X161166666Y-99054819D02*
X160595238Y-99054819D01*
X160880952Y-99054819D02*
X160880952Y-98054819D01*
X160880952Y-98054819D02*
X160785714Y-98197676D01*
X160785714Y-98197676D02*
X160690476Y-98292914D01*
X160690476Y-98292914D02*
X160595238Y-98340533D01*
X157938095Y-114054819D02*
X157938095Y-114864342D01*
X157938095Y-114864342D02*
X157985714Y-114959580D01*
X157985714Y-114959580D02*
X158033333Y-115007200D01*
X158033333Y-115007200D02*
X158128571Y-115054819D01*
X158128571Y-115054819D02*
X158319047Y-115054819D01*
X158319047Y-115054819D02*
X158414285Y-115007200D01*
X158414285Y-115007200D02*
X158461904Y-114959580D01*
X158461904Y-114959580D02*
X158509523Y-114864342D01*
X158509523Y-114864342D02*
X158509523Y-114054819D01*
X159509523Y-115054819D02*
X158938095Y-115054819D01*
X159223809Y-115054819D02*
X159223809Y-114054819D01*
X159223809Y-114054819D02*
X159128571Y-114197676D01*
X159128571Y-114197676D02*
X159033333Y-114292914D01*
X159033333Y-114292914D02*
X158938095Y-114340533D01*
X156838095Y-108354819D02*
X156838095Y-109164342D01*
X156838095Y-109164342D02*
X156885714Y-109259580D01*
X156885714Y-109259580D02*
X156933333Y-109307200D01*
X156933333Y-109307200D02*
X157028571Y-109354819D01*
X157028571Y-109354819D02*
X157219047Y-109354819D01*
X157219047Y-109354819D02*
X157314285Y-109307200D01*
X157314285Y-109307200D02*
X157361904Y-109259580D01*
X157361904Y-109259580D02*
X157409523Y-109164342D01*
X157409523Y-109164342D02*
X157409523Y-108354819D01*
X157790476Y-108354819D02*
X158409523Y-108354819D01*
X158409523Y-108354819D02*
X158076190Y-108735771D01*
X158076190Y-108735771D02*
X158219047Y-108735771D01*
X158219047Y-108735771D02*
X158314285Y-108783390D01*
X158314285Y-108783390D02*
X158361904Y-108831009D01*
X158361904Y-108831009D02*
X158409523Y-108926247D01*
X158409523Y-108926247D02*
X158409523Y-109164342D01*
X158409523Y-109164342D02*
X158361904Y-109259580D01*
X158361904Y-109259580D02*
X158314285Y-109307200D01*
X158314285Y-109307200D02*
X158219047Y-109354819D01*
X158219047Y-109354819D02*
X157933333Y-109354819D01*
X157933333Y-109354819D02*
X157838095Y-109307200D01*
X157838095Y-109307200D02*
X157790476Y-109259580D01*
X159133809Y-129991241D02*
X159133809Y-130467432D01*
X158800476Y-129467432D02*
X159133809Y-129991241D01*
X159133809Y-129991241D02*
X159467142Y-129467432D01*
X160324285Y-130467432D02*
X159752857Y-130467432D01*
X160038571Y-130467432D02*
X160038571Y-129467432D01*
X160038571Y-129467432D02*
X159943333Y-129610289D01*
X159943333Y-129610289D02*
X159848095Y-129705527D01*
X159848095Y-129705527D02*
X159752857Y-129753146D01*
X166366666Y-90854819D02*
X166366666Y-91569104D01*
X166366666Y-91569104D02*
X166319047Y-91711961D01*
X166319047Y-91711961D02*
X166223809Y-91807200D01*
X166223809Y-91807200D02*
X166080952Y-91854819D01*
X166080952Y-91854819D02*
X165985714Y-91854819D01*
X166747619Y-90854819D02*
X167366666Y-90854819D01*
X167366666Y-90854819D02*
X167033333Y-91235771D01*
X167033333Y-91235771D02*
X167176190Y-91235771D01*
X167176190Y-91235771D02*
X167271428Y-91283390D01*
X167271428Y-91283390D02*
X167319047Y-91331009D01*
X167319047Y-91331009D02*
X167366666Y-91426247D01*
X167366666Y-91426247D02*
X167366666Y-91664342D01*
X167366666Y-91664342D02*
X167319047Y-91759580D01*
X167319047Y-91759580D02*
X167271428Y-91807200D01*
X167271428Y-91807200D02*
X167176190Y-91854819D01*
X167176190Y-91854819D02*
X166890476Y-91854819D01*
X166890476Y-91854819D02*
X166795238Y-91807200D01*
X166795238Y-91807200D02*
X166747619Y-91759580D01*
X160366666Y-136354819D02*
X160366666Y-137069104D01*
X160366666Y-137069104D02*
X160319047Y-137211961D01*
X160319047Y-137211961D02*
X160223809Y-137307200D01*
X160223809Y-137307200D02*
X160080952Y-137354819D01*
X160080952Y-137354819D02*
X159985714Y-137354819D01*
X161271428Y-136688152D02*
X161271428Y-137354819D01*
X161033333Y-136307200D02*
X160795238Y-137021485D01*
X160795238Y-137021485D02*
X161414285Y-137021485D01*
X153966666Y-90854819D02*
X153966666Y-91569104D01*
X153966666Y-91569104D02*
X153919047Y-91711961D01*
X153919047Y-91711961D02*
X153823809Y-91807200D01*
X153823809Y-91807200D02*
X153680952Y-91854819D01*
X153680952Y-91854819D02*
X153585714Y-91854819D01*
X154395238Y-90950057D02*
X154442857Y-90902438D01*
X154442857Y-90902438D02*
X154538095Y-90854819D01*
X154538095Y-90854819D02*
X154776190Y-90854819D01*
X154776190Y-90854819D02*
X154871428Y-90902438D01*
X154871428Y-90902438D02*
X154919047Y-90950057D01*
X154919047Y-90950057D02*
X154966666Y-91045295D01*
X154966666Y-91045295D02*
X154966666Y-91140533D01*
X154966666Y-91140533D02*
X154919047Y-91283390D01*
X154919047Y-91283390D02*
X154347619Y-91854819D01*
X154347619Y-91854819D02*
X154966666Y-91854819D01*
D12*
%TO.C,SW1*%
X162930000Y-98780000D02*
X163230000Y-98780000D01*
X162930000Y-102920000D02*
X162930000Y-98780000D01*
X163230000Y-102920000D02*
X162930000Y-102920000D01*
X165770000Y-98780000D02*
X166070000Y-98780000D01*
X166070000Y-98780000D02*
X166070000Y-102920000D01*
X166070000Y-102920000D02*
X165770000Y-102920000D01*
%TO.C,U2*%
X156040000Y-100552500D02*
X157040000Y-100552500D01*
X156040000Y-102072500D02*
X156040000Y-100552500D01*
X156090000Y-102072500D02*
X156040000Y-102072500D01*
X157990000Y-102072500D02*
X157210000Y-102072500D01*
X158160000Y-100552500D02*
X159160000Y-100552500D01*
X159160000Y-100552500D02*
X159160000Y-102072500D01*
X159160000Y-102072500D02*
X159110000Y-102072500D01*
X157550000Y-102852500D02*
X157220000Y-102612500D01*
X157550000Y-102372500D01*
X157550000Y-102852500D01*
G36*
X157550000Y-102852500D02*
G01*
X157220000Y-102612500D01*
X157550000Y-102372500D01*
X157550000Y-102852500D01*
G37*
%TO.C,C6*%
X160990000Y-110907836D02*
X160990000Y-110692164D01*
X161710000Y-110907836D02*
X161710000Y-110692164D01*
%TO.C,C3*%
X154957836Y-120590000D02*
X154742164Y-120590000D01*
X154957836Y-121310000D02*
X154742164Y-121310000D01*
%TO.C,C8*%
X165492164Y-115740000D02*
X165707836Y-115740000D01*
X165492164Y-116460000D02*
X165707836Y-116460000D01*
%TO.C,C17*%
X158362164Y-109690000D02*
X158577836Y-109690000D01*
X158362164Y-110410000D02*
X158577836Y-110410000D01*
%TO.C,J1*%
X155800000Y-90500000D02*
X155800000Y-88600000D01*
X155800000Y-94400000D02*
X155800000Y-92400000D01*
X165200000Y-88600000D02*
X155800000Y-88600000D01*
X165200000Y-90500000D02*
X165200000Y-88600000D01*
X165200000Y-94400000D02*
X165200000Y-92400000D01*
%TO.C,C12*%
X159940000Y-110907836D02*
X159940000Y-110692164D01*
X160660000Y-110907836D02*
X160660000Y-110692164D01*
%TO.C,U1*%
X156890000Y-115890000D02*
X157540000Y-115890000D01*
X156890000Y-116540000D02*
X156890000Y-115890000D01*
X156890000Y-123110000D02*
X156890000Y-122460000D01*
X157540000Y-123110000D02*
X156890000Y-123110000D01*
X163460000Y-115890000D02*
X164110000Y-115890000D01*
X164110000Y-115890000D02*
X164110000Y-116540000D01*
X164110000Y-122460000D02*
X164110000Y-123110000D01*
X164110000Y-123110000D02*
X163460000Y-123110000D01*
X156360000Y-116900000D02*
X156030000Y-117140000D01*
X156030000Y-116660000D01*
X156360000Y-116900000D01*
G36*
X156360000Y-116900000D02*
G01*
X156030000Y-117140000D01*
X156030000Y-116660000D01*
X156360000Y-116900000D01*
G37*
%TO.C,C7*%
X162040000Y-110107836D02*
X162040000Y-109892164D01*
X162760000Y-110107836D02*
X162760000Y-109892164D01*
%TO.C,C1*%
X165319190Y-114421693D02*
X165471693Y-114269190D01*
X165828307Y-114930810D02*
X165980810Y-114778307D01*
%TO.C,C4*%
X155877836Y-115640000D02*
X155662164Y-115640000D01*
X155877836Y-116360000D02*
X155662164Y-116360000D01*
%TO.C,R6*%
X164546359Y-103920000D02*
X164853641Y-103920000D01*
X164546359Y-104680000D02*
X164853641Y-104680000D01*
%TO.C,C14*%
X157890580Y-103802500D02*
X157609420Y-103802500D01*
X157890580Y-104822500D02*
X157609420Y-104822500D01*
%TO.C,C11*%
X162840000Y-114327836D02*
X162840000Y-114112164D01*
X163560000Y-114327836D02*
X163560000Y-114112164D01*
%TO.C,R7*%
X156643641Y-109670000D02*
X156336359Y-109670000D01*
X156643641Y-110430000D02*
X156336359Y-110430000D01*
%TO.C,R2*%
X161520000Y-98963641D02*
X161520000Y-98656359D01*
X162280000Y-98963641D02*
X162280000Y-98656359D01*
%TO.C,R3*%
X160820000Y-113943641D02*
X160820000Y-113636359D01*
X161580000Y-113943641D02*
X161580000Y-113636359D01*
%TO.C,R1*%
X158320000Y-98953641D02*
X158320000Y-98646359D01*
X159080000Y-98953641D02*
X159080000Y-98646359D01*
%TO.C,C5*%
X163840000Y-114757836D02*
X163840000Y-114542164D01*
X164560000Y-114757836D02*
X164560000Y-114542164D01*
%TO.C,R4*%
X161820000Y-113943641D02*
X161820000Y-113636359D01*
X162580000Y-113943641D02*
X162580000Y-113636359D01*
%TO.C,U3*%
X156314432Y-110765000D02*
X159110000Y-110765000D01*
X159110000Y-113035000D02*
X155890000Y-113035000D01*
X156020000Y-110760000D02*
X155880000Y-110570000D01*
X156160000Y-110570000D01*
X156020000Y-110760000D01*
G36*
X156020000Y-110760000D02*
G01*
X155880000Y-110570000D01*
X156160000Y-110570000D01*
X156020000Y-110760000D01*
G37*
%TO.C,C10*%
X162990000Y-125504777D02*
X162990000Y-125720449D01*
X163710000Y-125504777D02*
X163710000Y-125720449D01*
%TO.C,Y1*%
X161670000Y-125852613D02*
X157550000Y-125852613D01*
X161670000Y-129272613D02*
X161670000Y-125852613D01*
%TO.C,J3*%
X168010000Y-89990000D02*
X169390000Y-89990000D01*
X168010000Y-91370000D02*
X168010000Y-89990000D01*
X168010000Y-92640000D02*
X168010000Y-141010000D01*
X168010000Y-92640000D02*
X170770000Y-92640000D01*
X168010000Y-141010000D02*
X170770000Y-141010000D01*
X170770000Y-92640000D02*
X170770000Y-141010000D01*
%TO.C,C9*%
X165942164Y-120140000D02*
X166157836Y-120140000D01*
X165942164Y-120860000D02*
X166157836Y-120860000D01*
%TO.C,C13*%
X156790580Y-98040000D02*
X156509420Y-98040000D01*
X156790580Y-99060000D02*
X156509420Y-99060000D01*
%TO.C,C15*%
X156550000Y-127670449D02*
X156550000Y-127454777D01*
X157270000Y-127670449D02*
X157270000Y-127454777D01*
%TO.C,J4*%
X156580000Y-140770000D02*
X156580000Y-139390000D01*
X157960000Y-140770000D02*
X156580000Y-140770000D01*
X159230000Y-138010000D02*
X164420000Y-138010000D01*
X159230000Y-140770000D02*
X159230000Y-138010000D01*
X159230000Y-140770000D02*
X164420000Y-140770000D01*
X164420000Y-140770000D02*
X164420000Y-138010000D01*
%TO.C,C2*%
X161940000Y-125504777D02*
X161940000Y-125720449D01*
X162660000Y-125504777D02*
X162660000Y-125720449D01*
%TO.C,J2*%
X150230000Y-89990000D02*
X151610000Y-89990000D01*
X150230000Y-91370000D02*
X150230000Y-89990000D01*
X150230000Y-92640000D02*
X150230000Y-141010000D01*
X150230000Y-92640000D02*
X152990000Y-92640000D01*
X150230000Y-141010000D02*
X152990000Y-141010000D01*
X152990000Y-92640000D02*
X152990000Y-141010000D01*
%TO.C,R5*%
X160506359Y-124832613D02*
X160813641Y-124832613D01*
X160506359Y-125592613D02*
X160813641Y-125592613D01*
%TO.C,C16*%
X161950000Y-127454777D02*
X161950000Y-127670449D01*
X162670000Y-127454777D02*
X162670000Y-127670449D01*
%TD*%
M02*
