%TF.GenerationSoftware,KiCad,Pcbnew,9.0.6*%
%TF.CreationDate,2025-12-19T19:37:15+11:00*%
%TF.ProjectId,Devboard,44657662-6f61-4726-942e-6b696361645f,rev?*%
%TF.SameCoordinates,Original*%
%TF.FileFunction,Soldermask,Bot*%
%TF.FilePolarity,Negative*%
%FSLAX46Y46*%
G04 Gerber Fmt 4.6, Leading zero omitted, Abs format (unit mm)*
G04 Created by KiCad (PCBNEW 9.0.6) date 2025-12-19 19:37:15*
%MOMM*%
%LPD*%
G01*
G04 APERTURE LIST*
%ADD10C,0.650000*%
%ADD11O,1.000000X2.100000*%
%ADD12O,1.000000X1.600000*%
%ADD13R,1.700000X1.700000*%
%ADD14C,1.700000*%
G04 APERTURE END LIST*
D10*
%TO.C,J1*%
X163390000Y-95100000D03*
X157610000Y-95100000D03*
D11*
X164820000Y-95630000D03*
D12*
X164820000Y-91450000D03*
D11*
X156180000Y-95630000D03*
D12*
X156180000Y-91450000D03*
%TD*%
D13*
%TO.C,J3*%
X169390000Y-91370000D03*
D14*
X169390000Y-93910000D03*
X169390000Y-96450000D03*
X169390000Y-98990000D03*
X169390000Y-101530000D03*
X169390000Y-104070000D03*
X169390000Y-106610000D03*
X169390000Y-109150000D03*
X169390000Y-111690000D03*
X169390000Y-114230000D03*
X169390000Y-116770000D03*
X169390000Y-119310000D03*
X169390000Y-121850000D03*
X169390000Y-124390000D03*
X169390000Y-126930000D03*
X169390000Y-129470000D03*
X169390000Y-132010000D03*
X169390000Y-134550000D03*
X169390000Y-137090000D03*
X169390000Y-139630000D03*
%TD*%
D13*
%TO.C,J4*%
X157960000Y-139390000D03*
D14*
X160500000Y-139390000D03*
X163040000Y-139390000D03*
%TD*%
D13*
%TO.C,J2*%
X151610000Y-91370000D03*
D14*
X151610000Y-93910000D03*
X151610000Y-96450000D03*
X151610000Y-98990000D03*
X151610000Y-101530000D03*
X151610000Y-104070000D03*
X151610000Y-106610000D03*
X151610000Y-109150000D03*
X151610000Y-111690000D03*
X151610000Y-114230000D03*
X151610000Y-116770000D03*
X151610000Y-119310000D03*
X151610000Y-121850000D03*
X151610000Y-124390000D03*
X151610000Y-126930000D03*
X151610000Y-129470000D03*
X151610000Y-132010000D03*
X151610000Y-134550000D03*
X151610000Y-137090000D03*
X151610000Y-139630000D03*
%TD*%
M02*
